# Blender v2.82 (sub 7) OBJ File: 'Общая сцена2.blend'
# www.blender.org
mtllib Гвоздик.mtl
o Гвоздь_Цилиндр.002
v 0.000000 0.012736 0.000050
v 0.000010 0.012736 0.000049
v 0.000019 0.012736 0.000046
v 0.000028 0.012736 0.000041
v 0.000035 0.012736 0.000035
v 0.000041 0.012736 0.000028
v 0.000046 0.012736 0.000019
v 0.000049 0.012736 0.000010
v 0.000050 0.012736 0.000000
v 0.000049 0.012736 -0.000010
v 0.000046 0.012736 -0.000019
v 0.000041 0.012736 -0.000028
v 0.000035 0.012736 -0.000035
v 0.000028 0.012736 -0.000041
v 0.000019 0.012736 -0.000046
v 0.000010 0.012736 -0.000049
v 0.000000 0.012736 -0.000050
v -0.000010 0.012736 -0.000049
v -0.000019 0.012736 -0.000046
v -0.000028 0.012736 -0.000041
v -0.000035 0.012736 -0.000035
v -0.000041 0.012736 -0.000028
v -0.000046 0.012736 -0.000019
v -0.000049 0.012736 -0.000010
v -0.000050 0.012736 0.000000
v -0.000049 0.012736 0.000010
v -0.000046 0.012736 0.000019
v -0.000041 0.012736 0.000028
v -0.000035 0.012736 0.000035
v -0.000028 0.012736 0.000041
v -0.000019 0.012736 0.000046
v -0.000010 0.012736 0.000049
v -0.000000 -0.012189 0.000472
v 0.000092 -0.012189 0.000463
v 0.000180 -0.012189 0.000436
v 0.000262 -0.012189 0.000392
v 0.000333 -0.012189 0.000333
v 0.000392 -0.012189 0.000262
v 0.000436 -0.012189 0.000180
v 0.000463 -0.012189 0.000092
v 0.000472 -0.012189 -0.000000
v 0.000463 -0.012189 -0.000092
v 0.000436 -0.012189 -0.000180
v 0.000392 -0.012189 -0.000262
v 0.000333 -0.012189 -0.000333
v 0.000262 -0.012189 -0.000392
v 0.000180 -0.012189 -0.000436
v 0.000092 -0.012189 -0.000463
v -0.000000 -0.012189 -0.000472
v -0.000092 -0.012189 -0.000463
v -0.000180 -0.012189 -0.000436
v -0.000262 -0.012189 -0.000392
v -0.000333 -0.012189 -0.000333
v -0.000392 -0.012189 -0.000262
v -0.000436 -0.012189 -0.000180
v -0.000463 -0.012189 -0.000092
v -0.000472 -0.012189 -0.000000
v -0.000463 -0.012189 0.000092
v -0.000436 -0.012189 0.000180
v -0.000392 -0.012189 0.000262
v -0.000333 -0.012189 0.000333
v -0.000262 -0.012189 0.000392
v -0.000180 -0.012189 0.000436
v -0.000092 -0.012189 0.000463
v -0.000000 0.011178 0.000472
v -0.000092 0.011178 0.000463
v -0.000000 -0.012189 0.000472
v -0.000180 0.011178 0.000436
v -0.000262 0.011178 0.000392
v -0.000333 0.011178 0.000333
v -0.000392 0.011178 0.000262
v -0.000436 0.011178 0.000180
v -0.000463 0.011178 0.000092
v -0.000472 0.011178 0.000000
v -0.000463 0.011178 -0.000092
v -0.000436 0.011178 -0.000180
v -0.000392 0.011178 -0.000262
v -0.000333 0.011178 -0.000333
v -0.000262 0.011178 -0.000392
v -0.000180 0.011178 -0.000436
v -0.000092 0.011178 -0.000463
v -0.000000 0.011178 -0.000472
v 0.000092 0.011178 -0.000463
v 0.000180 0.011178 -0.000436
v 0.000262 0.011178 -0.000392
v 0.000333 0.011178 -0.000333
v 0.000392 0.011178 -0.000262
v 0.000436 0.011178 -0.000180
v 0.000463 0.011178 -0.000092
v 0.000472 0.011178 0.000000
v 0.000463 0.011178 0.000092
v 0.000436 0.011178 0.000180
v 0.000392 0.011178 0.000262
v 0.000333 0.011178 0.000333
v 0.000262 0.011178 0.000392
v 0.000180 0.011178 0.000436
v 0.000092 0.011178 0.000463
v 0.000092 -0.012189 0.000463
v 0.000180 -0.012189 0.000436
v 0.000262 -0.012189 0.000392
v 0.000333 -0.012189 0.000333
v 0.000392 -0.012189 0.000262
v 0.000436 -0.012189 0.000180
v 0.000463 -0.012189 0.000092
v 0.000472 -0.012189 -0.000000
v 0.000463 -0.012189 -0.000092
v 0.000436 -0.012189 -0.000180
v 0.000392 -0.012189 -0.000262
v 0.000333 -0.012189 -0.000333
v 0.000262 -0.012189 -0.000392
v 0.000180 -0.012189 -0.000436
v 0.000092 -0.012189 -0.000463
v -0.000000 -0.012189 -0.000472
v -0.000092 -0.012189 -0.000463
v -0.000180 -0.012189 -0.000436
v -0.000262 -0.012189 -0.000392
v -0.000333 -0.012189 -0.000333
v -0.000392 -0.012189 -0.000262
v -0.000436 -0.012189 -0.000180
v -0.000463 -0.012189 -0.000092
v -0.000472 -0.012189 -0.000000
v -0.000463 -0.012189 0.000092
v -0.000436 -0.012189 0.000180
v -0.000392 -0.012189 0.000262
v -0.000333 -0.012189 0.000333
v -0.000262 -0.012189 0.000392
v -0.000180 -0.012189 0.000436
v -0.000092 -0.012189 0.000463
v 0.000103 -0.012770 0.000520
v -0.000000 -0.012770 0.000530
v -0.000000 -0.012155 0.000530
v 0.000203 -0.012770 0.000490
v 0.000295 -0.012770 0.000441
v 0.000375 -0.012770 0.000375
v 0.000441 -0.012770 0.000295
v 0.000490 -0.012770 0.000203
v 0.000520 -0.012770 0.000103
v 0.000530 -0.012770 -0.000000
v 0.000520 -0.012770 -0.000103
v 0.000490 -0.012770 -0.000203
v 0.000441 -0.012770 -0.000295
v 0.000375 -0.012770 -0.000375
v 0.000295 -0.012770 -0.000441
v 0.000203 -0.012770 -0.000490
v 0.000103 -0.012770 -0.000520
v -0.000000 -0.012770 -0.000530
v -0.000103 -0.012770 -0.000520
v -0.000203 -0.012770 -0.000490
v -0.000295 -0.012770 -0.000441
v -0.000375 -0.012770 -0.000375
v -0.000441 -0.012770 -0.000295
v -0.000490 -0.012770 -0.000203
v -0.000520 -0.012770 -0.000103
v -0.000530 -0.012770 -0.000000
v -0.000520 -0.012770 0.000103
v -0.000490 -0.012770 0.000203
v -0.000441 -0.012770 0.000295
v -0.000375 -0.012770 0.000375
v -0.000295 -0.012770 0.000441
v -0.000203 -0.012770 0.000490
v -0.000103 -0.012770 0.000520
v 0.000103 -0.012155 0.000520
v 0.000203 -0.012155 0.000490
v 0.000295 -0.012155 0.000441
v 0.000375 -0.012155 0.000375
v 0.000441 -0.012155 0.000295
v 0.000490 -0.012155 0.000203
v 0.000520 -0.012155 0.000103
v 0.000530 -0.012155 -0.000000
v 0.000520 -0.012155 -0.000103
v 0.000490 -0.012155 -0.000203
v 0.000441 -0.012155 -0.000295
v 0.000375 -0.012155 -0.000375
v 0.000295 -0.012155 -0.000441
v 0.000203 -0.012155 -0.000490
v 0.000103 -0.012155 -0.000520
v -0.000000 -0.012155 -0.000530
v -0.000103 -0.012155 -0.000520
v -0.000203 -0.012155 -0.000490
v -0.000295 -0.012155 -0.000441
v -0.000375 -0.012155 -0.000375
v -0.000441 -0.012155 -0.000295
v -0.000490 -0.012155 -0.000203
v -0.000520 -0.012155 -0.000103
v -0.000530 -0.012155 -0.000000
v -0.000520 -0.012155 0.000103
v -0.000490 -0.012155 0.000203
v -0.000441 -0.012155 0.000295
v -0.000375 -0.012155 0.000375
v -0.000295 -0.012155 0.000441
v -0.000203 -0.012155 0.000490
v -0.000103 -0.012155 0.000520
vt 0.281250 0.750000
vt 0.312500 0.750000
vt 0.312500 0.750000
vt 0.281250 0.750000
vt 0.250000 0.750000
vt 0.250000 0.750000
vt 0.218750 0.750000
vt 0.218750 0.750000
vt 0.187500 0.750000
vt 0.187500 0.750000
vt 0.156250 0.750000
vt 0.156250 0.750000
vt 0.968750 0.750000
vt 1.000000 0.750000
vt 1.000000 0.750000
vt 0.968750 0.750000
vt 0.125000 0.750000
vt 0.125000 0.750000
vt 0.937500 0.750000
vt 0.937500 0.750000
vt 0.093750 0.750000
vt 0.093750 0.750000
vt 0.906250 0.750000
vt 0.906250 0.750000
vt 0.062500 0.750000
vt 0.062500 0.750000
vt 0.875000 0.750000
vt 0.875000 0.750000
vt 0.031250 0.750000
vt 0.031250 0.750000
vt 0.843750 0.750000
vt 0.843750 0.750000
vt 0.000000 0.750000
vt 0.000000 0.750000
vt 0.812500 0.750000
vt 0.812500 0.750000
vt 0.781250 0.750000
vt 0.781250 0.750000
vt 0.750000 0.750000
vt 0.750000 0.750000
vt 0.750000 0.490000
vt 0.796822 0.485388
vt 0.841844 0.471731
vt 0.883337 0.449553
vt 0.919706 0.419706
vt 0.949553 0.383337
vt 0.971731 0.341844
vt 0.985388 0.296822
vt 0.990000 0.250000
vt 0.985388 0.203178
vt 0.971731 0.158156
vt 0.949553 0.116663
vt 0.919706 0.080294
vt 0.883337 0.050447
vt 0.841844 0.028269
vt 0.796822 0.014612
vt 0.750000 0.010000
vt 0.703178 0.014612
vt 0.658156 0.028269
vt 0.616663 0.050447
vt 0.580294 0.080294
vt 0.550447 0.116663
vt 0.528269 0.158156
vt 0.514611 0.203179
vt 0.510000 0.250000
vt 0.514612 0.296822
vt 0.528269 0.341844
vt 0.550447 0.383337
vt 0.580295 0.419706
vt 0.616663 0.449553
vt 0.658156 0.471731
vt 0.703179 0.485389
vt 0.031250 0.625000
vt 0.000000 0.625000
vt 0.062500 0.625000
vt 0.093750 0.625000
vt 0.125000 0.625000
vt 0.156250 0.625000
vt 0.187500 0.625000
vt 0.218750 0.625000
vt 0.250000 0.625000
vt 0.281250 0.625000
vt 0.312500 0.625000
vt 0.343750 0.625000
vt 0.343750 0.750000
vt 0.375000 0.625000
vt 0.375000 0.750000
vt 0.406250 0.625000
vt 0.406250 0.750000
vt 0.437500 0.625000
vt 0.437500 0.750000
vt 0.468750 0.625000
vt 0.468750 0.750000
vt 0.500000 0.625000
vt 0.500000 0.750000
vt 0.562500 0.625000
vt 0.562500 0.750000
vt 0.531250 0.750000
vt 0.531250 0.625000
vt 0.968750 0.625000
vt 0.937500 0.625000
vt 0.625000 0.750000
vt 0.656250 0.750000
vt 0.656250 0.750000
vt 0.625000 0.750000
vt 0.187500 0.500000
vt 0.156250 0.500000
vt 0.593750 0.750000
vt 0.593750 0.750000
vt 0.125000 0.500000
vt 0.968750 0.500000
vt 0.937500 0.500000
vt 0.562500 0.750000
vt 0.562500 0.750000
vt 0.093750 0.500000
vt 0.906250 0.625000
vt 0.906250 0.500000
vt 0.531250 0.750000
vt 0.531250 0.750000
vt 0.062500 0.500000
vt 0.875000 0.625000
vt 0.875000 0.500000
vt 0.500000 0.750000
vt 0.500000 0.750000
vt 0.843750 0.625000
vt 0.843750 0.500000
vt 0.468750 0.750000
vt 0.468750 0.750000
vt 0.031250 0.500000
vt 0.812500 0.625000
vt 0.812500 0.500000
vt 0.437500 0.750000
vt 0.437500 0.750000
vt 0.781250 0.625000
vt 0.781250 0.500000
vt 0.406250 0.750000
vt 0.406250 0.750000
vt 0.750000 0.625000
vt 0.750000 0.500000
vt 0.375000 0.750000
vt 0.375000 0.750000
vt 0.718750 0.625000
vt 0.718750 0.500000
vt 0.343750 0.750000
vt 0.343750 0.750000
vt 0.687500 0.625000
vt 0.687500 0.500000
vt 0.312500 0.750000
vt 0.656250 0.625000
vt 0.656250 0.500000
vt 0.281250 0.750000
vt 0.625000 0.625000
vt 0.625000 0.500000
vt 0.250000 0.750000
vt 0.593750 0.625000
vt 0.593750 0.500000
vt 0.218750 0.750000
vt 0.593750 0.750000
vt 0.625000 0.750000
vt 0.000000 0.500000
vt 0.656250 0.750000
vt 0.687500 0.750000
vt 0.687500 0.750000
vt 0.718750 0.750000
vt 0.718750 0.750000
vt 1.000000 0.500000
vt 1.000000 0.625000
vt 0.218750 0.500000
vt 0.687500 0.750000
vt 0.250000 0.500000
vt 0.718750 0.750000
vt 0.281250 0.500000
vt 0.750000 0.750000
vt 0.312500 0.500000
vt 0.781250 0.750000
vt 0.343750 0.500000
vt 0.812500 0.750000
vt 0.375000 0.500000
vt 0.843750 0.750000
vt 0.031250 0.750000
vt 0.000000 0.750000
vt 0.406250 0.500000
vt 0.875000 0.750000
vt 0.062500 0.750000
vt 0.437500 0.500000
vt 0.906250 0.750000
vt 0.093750 0.750000
vt 0.468750 0.500000
vt 0.937500 0.750000
vt 0.125000 0.750000
vt 0.500000 0.500000
vt 0.968750 0.750000
vt 0.156250 0.750000
vt 0.531250 0.500000
vt 1.000000 0.750000
vt 0.187500 0.750000
vt 0.562500 0.500000
vt 0.203179 0.485389
vt 0.158156 0.471731
vt 0.116663 0.449553
vt 0.080295 0.419706
vt 0.050447 0.383337
vt 0.028269 0.341844
vt 0.014612 0.296822
vt 0.010000 0.250000
vt 0.014611 0.203179
vt 0.028269 0.158156
vt 0.050447 0.116663
vt 0.080294 0.080294
vt 0.116663 0.050447
vt 0.158156 0.028269
vt 0.203178 0.014612
vt 0.250000 0.010000
vt 0.296822 0.014612
vt 0.341844 0.028269
vt 0.383337 0.050447
vt 0.419706 0.080294
vt 0.449553 0.116663
vt 0.471731 0.158156
vt 0.485388 0.203178
vt 0.490000 0.250000
vt 0.485388 0.296822
vt 0.471731 0.341844
vt 0.449553 0.383337
vt 0.419706 0.419706
vt 0.383337 0.449553
vt 0.341844 0.471731
vt 0.296822 0.485388
vt 0.250000 0.490000
vt 1.000000 1.000000
vt 0.968750 1.000000
vt 0.937500 1.000000
vt 0.906250 1.000000
vt 0.875000 1.000000
vt 0.843750 1.000000
vt 0.812500 1.000000
vt 0.781250 1.000000
vt 0.750000 1.000000
vt 0.718750 1.000000
vt 0.687500 1.000000
vt 0.656250 1.000000
vt 0.625000 1.000000
vt 0.593750 1.000000
vt 0.562500 1.000000
vt 0.531250 1.000000
vt 0.500000 1.000000
vt 0.468750 1.000000
vt 0.437500 1.000000
vt 0.406250 1.000000
vt 0.375000 1.000000
vt 0.343750 1.000000
vt 0.312500 1.000000
vt 0.281250 1.000000
vt 0.250000 1.000000
vt 0.218750 1.000000
vt 0.187500 1.000000
vt 0.156250 1.000000
vt 0.125000 1.000000
vt 0.093750 1.000000
vt 0.062500 1.000000
vt 0.031250 1.000000
vt 0.000000 1.000000
vn 0.0000 0.0000 1.0000
vn 0.0000 1.0000 -0.0000
vn -0.0980 -0.0000 0.9952
vn -0.2903 -0.0000 0.9569
vn -0.4714 -0.0000 0.8819
vn -0.6344 -0.0000 0.7730
vn -0.7730 -0.0000 0.6344
vn -0.8819 -0.0000 0.4714
vn -0.9569 -0.0000 0.2903
vn -0.9952 -0.0000 0.0980
vn -0.9952 0.0000 -0.0980
vn -0.9569 0.0000 -0.2903
vn -0.8819 0.0000 -0.4714
vn -0.7730 0.0000 -0.6344
vn -0.6344 0.0000 -0.7730
vn -0.4714 0.0000 -0.8819
vn -0.2903 0.0000 -0.9569
vn -0.0980 0.0000 -0.9952
vn 0.2903 0.0000 -0.9569
vn 0.2903 -0.0000 0.9569
vn -0.3887 0.8643 0.3190
vn -0.8515 0.2604 0.4551
vn -0.3190 0.8643 0.3887
vn -0.7463 0.2604 0.6125
vn 0.2803 0.2604 0.9239
vn -0.2371 0.8644 0.4435
vn -0.6125 0.2604 0.7463
vn 0.4551 0.2604 0.8515
vn -0.1460 0.8643 0.4812
vn -0.4551 0.2604 0.8515
vn 0.6125 0.2604 0.7463
vn -0.0493 0.8644 0.5005
vn 0.7463 0.2604 0.6125
vn 0.0493 0.8644 0.5005
vn -0.2803 0.2604 0.9239
vn 0.8515 0.2604 0.4551
vn 0.1460 0.8644 0.4812
vn 0.9239 0.2604 0.2803
vn 0.2371 0.8643 0.4435
vn 0.9609 0.2604 0.0946
vn 0.3190 0.8643 0.3887
vn 0.9609 0.2604 -0.0946
vn 0.3887 0.8644 0.3190
vn 0.9239 0.2604 -0.2803
vn 0.4435 0.8643 0.2371
vn 0.8515 0.2604 -0.4551
vn 0.4812 0.8643 0.1460
vn 0.7463 0.2604 -0.6125
vn 0.5005 0.8643 0.0493
vn 0.6125 0.2604 -0.7463
vn 0.5005 0.8643 -0.0493
vn -0.0946 0.2604 0.9609
vn 0.0946 0.2604 0.9609
vn -0.9239 0.2604 0.2803
vn -0.4435 0.8643 0.2371
vn -0.9609 0.2604 0.0946
vn -0.4812 0.8643 0.1460
vn -0.9609 0.2604 -0.0946
vn -0.5005 0.8643 0.0493
vn -0.9239 0.2604 -0.2803
vn -0.5005 0.8643 -0.0493
vn -0.8515 0.2604 -0.4551
vn -0.4812 0.8643 -0.1460
vn -0.7464 0.2604 -0.6125
vn -0.4435 0.8643 -0.2371
vn 0.0493 0.8643 -0.5005
vn -0.6125 0.2604 -0.7463
vn -0.3887 0.8643 -0.3190
vn 0.1460 0.8643 -0.4812
vn -0.4551 0.2604 -0.8515
vn -0.3190 0.8643 -0.3887
vn 0.2371 0.8643 -0.4435
vn -0.2803 0.2604 -0.9239
vn -0.2371 0.8643 -0.4435
vn 0.3190 0.8643 -0.3887
vn -0.0946 0.2604 -0.9609
vn -0.1460 0.8643 -0.4812
vn 0.3887 0.8643 -0.3190
vn 0.0946 0.2604 -0.9609
vn -0.0493 0.8643 -0.5005
vn 0.4435 0.8643 -0.2371
vn 0.2803 0.2604 -0.9239
vn 0.4812 0.8643 -0.1460
vn 0.4551 0.2604 -0.8515
vn 0.1934 0.1308 -0.9724
vn 0.9925 0.0000 0.1223
vn 0.0000 0.1308 -0.9914
vn 0.5508 0.1308 -0.8243
vn 0.9546 0.0000 0.2979
vn 0.9783 0.0000 0.2069
vn 0.3794 0.1308 -0.9159
vn 0.7010 0.1308 -0.7010
vn 0.9216 0.0000 0.3880
vn 0.8243 0.1308 -0.5508
vn 0.8798 0.0000 0.4754
vn 0.9159 0.1308 -0.3794
vn 0.8294 0.0000 0.5585
vn 0.9724 0.1308 -0.1934
vn 0.7711 0.0000 0.6366
vn 0.9914 0.1308 0.0000
vn 0.7054 0.0000 0.7088
vn 0.9724 0.1308 0.1934
vn 0.6328 0.0000 0.7743
vn 0.9159 0.1308 0.3794
vn 0.5542 0.0000 0.8324
vn 0.8243 0.1308 0.5508
vn 0.4702 0.0000 0.8825
vn 0.7010 0.1308 0.7010
vn 0.3818 0.0000 0.9243
vn 0.5508 0.1308 0.8243
vn 0.2896 0.0000 0.9572
vn 0.3794 0.1308 0.9159
vn 0.1946 0.0000 0.9809
vn 0.0000 0.1308 0.9914
vn 0.0978 0.0000 0.9952
vn 0.1934 0.1308 0.9724
vn -0.1420 -0.6857 0.7139
vn -0.2785 -0.6857 0.6725
vn -0.4044 -0.6857 0.6052
vn -0.5147 -0.6857 0.5147
vn -0.6052 -0.6857 0.4044
vn -0.6725 -0.6857 0.2785
vn -0.7139 -0.6857 0.1420
vn -0.7279 -0.6857 0.0000
vn -0.7139 -0.6857 -0.1420
vn -0.6725 -0.6857 -0.2785
vn -0.6052 -0.6857 -0.4044
vn -0.5147 -0.6857 -0.5147
vn -0.4044 -0.6857 -0.6052
vn -0.2785 -0.6857 -0.6725
vn -0.1420 -0.6857 -0.7139
vn 0.0000 -0.6857 -0.7279
vn 0.1420 -0.6857 -0.7139
vn 0.2785 -0.6857 -0.6725
vn 0.4044 -0.6857 -0.6052
vn 0.5147 -0.6857 -0.5147
vn 0.6052 -0.6857 -0.4044
vn 0.6725 -0.6857 -0.2785
vn 0.7139 -0.6857 -0.1420
vn 0.7279 -0.6857 0.0000
vn 0.7139 -0.6857 0.1420
vn 0.6725 -0.6857 0.2785
vn 0.6052 -0.6857 0.4044
vn 0.5147 -0.6857 0.5147
vn 0.4044 -0.6857 0.6052
vn 0.2785 -0.6857 0.6725
vn 0.1420 -0.6857 0.7139
vn 0.0000 -0.6857 0.7279
vn 0.0000 0.8430 0.5379
vn 0.1049 0.8430 0.5276
vn 0.2058 0.8430 0.4970
vn 0.2989 0.8430 0.4473
vn 0.3804 0.8430 0.3804
vn 0.4473 0.8430 0.2988
vn 0.4970 0.8430 0.2058
vn 0.5276 0.8430 0.1049
vn 0.5379 0.8430 0.0000
vn 0.5276 0.8430 -0.1049
vn 0.4970 0.8430 -0.2058
vn 0.4473 0.8430 -0.2989
vn 0.3804 0.8430 -0.3804
vn 0.2989 0.8430 -0.4473
vn 0.2058 0.8430 -0.4970
vn 0.1049 0.8430 -0.5276
vn 0.0000 0.8430 -0.5379
vn -0.1049 0.8430 -0.5276
vn -0.2058 0.8430 -0.4970
vn -0.2989 0.8430 -0.4473
vn -0.3804 0.8430 -0.3804
vn -0.4473 0.8430 -0.2989
vn -0.4970 0.8430 -0.2058
vn -0.5276 0.8430 -0.1049
vn -0.5379 0.8430 0.0000
vn -0.5276 0.8430 0.1050
vn -0.4970 0.8430 0.2058
vn -0.4473 0.8430 0.2989
vn -0.3804 0.8430 0.3804
vn -0.2989 0.8430 0.4473
vn -0.2058 0.8430 0.4970
vn -0.1049 0.8430 0.5276
usemtl None
s off
f 56/1/1 55/2/1 119/3/1 120/4/1
f 57/5/1 56/1/1 120/4/1 121/6/1
f 58/7/1 57/5/1 121/6/1 122/8/1
f 59/9/1 58/7/1 122/8/1 123/10/1
f 60/11/1 59/9/1 123/10/1 124/12/1
f 34/13/1 33/14/1 67/15/1 98/16/1
f 61/17/1 60/11/1 124/12/1 125/18/1
f 35/19/1 34/13/1 98/16/1 99/20/1
f 62/21/1 61/17/1 125/18/1 126/22/1
f 36/23/1 35/19/1 99/20/1 100/24/1
f 63/25/1 62/21/1 126/22/1 127/26/1
f 37/27/1 36/23/1 100/24/1 101/28/1
f 64/29/1 63/25/1 127/26/1 128/30/1
f 38/31/1 37/27/1 101/28/1 102/32/1
f 33/33/1 64/29/1 128/30/1 67/34/1
f 39/35/1 38/31/1 102/32/1 103/36/1
f 40/37/1 39/35/1 103/36/1 104/38/1
f 41/39/1 40/37/1 104/38/1 105/40/1
f 1/41/2 2/42/2 3/43/2 4/44/2 5/45/2 6/46/2 7/47/2 8/48/2 9/49/2 10/50/2 11/51/2 12/52/2 13/53/2 14/54/2 15/55/2 16/56/2 17/57/2 18/58/2 19/59/2 20/60/2 21/61/2 22/62/2 23/63/2 24/64/2 25/65/2 26/66/2 27/67/2 28/68/2 29/69/2 30/70/2 31/71/2 32/72/2
f 66/73/3 64/29/3 33/33/3 65/74/3
f 68/75/4 63/25/4 64/29/4 66/73/4
f 69/76/5 62/21/5 63/25/5 68/75/5
f 70/77/6 61/17/6 62/21/6 69/76/6
f 71/78/7 60/11/7 61/17/7 70/77/7
f 72/79/8 59/9/8 60/11/8 71/78/8
f 73/80/9 58/7/9 59/9/9 72/79/9
f 74/81/10 57/5/10 58/7/10 73/80/10
f 75/82/11 56/1/11 57/5/11 74/81/11
f 76/83/12 55/2/12 56/1/12 75/82/12
f 77/84/13 54/85/13 55/2/13 76/83/13
f 78/86/14 53/87/14 54/85/14 77/84/14
f 79/88/15 52/89/15 53/87/15 78/86/15
f 80/90/16 51/91/16 52/89/16 79/88/16
f 81/92/17 50/93/17 51/91/17 80/90/17
f 82/94/18 49/95/18 50/93/18 81/92/18
f 84/96/19 47/97/19 48/98/19 83/99/19
f 97/100/20 34/13/20 35/19/20 96/101/20
f 109/102/21 108/103/21 172/104/21 173/105/21
f 27/106/22 72/79/22 71/78/22 28/107/22
f 110/108/23 109/102/23 173/105/23 174/109/23
f 28/107/24 71/78/24 70/77/24 29/110/24
f 2/111/25 97/100/25 96/101/25 3/112/25
f 111/113/26 110/108/26 174/109/26 175/114/26
f 29/110/27 70/77/27 69/76/27 30/115/27
f 3/112/28 96/101/28 95/116/28 4/117/28
f 112/118/29 111/113/29 175/114/29 176/119/29
f 30/115/30 69/76/30 68/75/30 31/120/30
f 4/117/31 95/116/31 94/121/31 5/122/31
f 113/123/32 112/118/32 176/119/32 177/124/32
f 5/122/33 94/121/33 93/125/33 6/126/33
f 114/127/34 113/123/34 177/124/34 178/128/34
f 31/120/35 68/75/35 66/73/35 32/129/35
f 6/126/36 93/125/36 92/130/36 7/131/36
f 115/132/37 114/127/37 178/128/37 179/133/37
f 7/131/38 92/130/38 91/134/38 8/135/38
f 116/136/39 115/132/39 179/133/39 180/137/39
f 8/135/40 91/134/40 90/138/40 9/139/40
f 117/140/41 116/136/41 180/137/41 181/141/41
f 9/139/42 90/138/42 89/142/42 10/143/42
f 118/144/43 117/140/43 181/141/43 182/145/43
f 10/143/44 89/142/44 88/146/44 11/147/44
f 119/3/45 118/144/45 182/145/45 183/148/45
f 11/147/46 88/146/46 87/149/46 12/150/46
f 120/4/47 119/3/47 183/148/47 184/151/47
f 12/150/48 87/149/48 86/152/48 13/153/48
f 121/6/49 120/4/49 184/151/49 185/154/49
f 13/153/50 86/152/50 85/155/50 14/156/50
f 122/8/51 121/6/51 185/154/51 186/157/51
f 55/2/1 54/85/1 118/144/1 119/3/1
f 54/85/1 53/87/1 117/140/1 118/144/1
f 53/87/1 52/89/1 116/136/1 117/140/1
f 52/89/1 51/91/1 115/132/1 116/136/1
f 51/91/1 50/93/1 114/127/1 115/132/1
f 50/93/1 49/95/1 113/123/1 114/127/1
f 49/95/1 48/98/1 112/118/1 113/123/1
f 48/98/1 47/97/1 111/113/1 112/118/1
f 47/97/1 46/158/1 110/108/1 111/113/1
f 46/158/1 45/159/1 109/102/1 110/108/1
f 32/129/52 66/73/52 65/74/52 1/160/52
f 45/159/1 44/161/1 108/103/1 109/102/1
f 44/161/1 43/162/1 107/163/1 108/103/1
f 43/162/1 42/164/1 106/165/1 107/163/1
f 42/164/1 41/39/1 105/40/1 106/165/1
f 1/166/53 65/167/53 97/100/53 2/111/53
f 26/168/54 73/80/54 72/79/54 27/106/54
f 108/103/55 107/163/55 171/169/55 172/104/55
f 25/170/56 74/81/56 73/80/56 26/168/56
f 107/163/57 106/165/57 170/171/57 171/169/57
f 24/172/58 75/82/58 74/81/58 25/170/58
f 106/165/59 105/40/59 169/173/59 170/171/59
f 23/174/60 76/83/60 75/82/60 24/172/60
f 105/40/61 104/38/61 168/175/61 169/173/61
f 22/176/62 77/84/62 76/83/62 23/174/62
f 104/38/63 103/36/63 167/177/63 168/175/63
f 21/178/64 78/86/64 77/84/64 22/176/64
f 103/36/65 102/32/65 166/179/65 167/177/65
f 67/34/66 128/30/66 192/180/66 131/181/66
f 20/182/67 79/88/67 78/86/67 21/178/67
f 102/32/68 101/28/68 165/183/68 166/179/68
f 128/30/69 127/26/69 191/184/69 192/180/69
f 19/185/70 80/90/70 79/88/70 20/182/70
f 101/28/71 100/24/71 164/186/71 165/183/71
f 127/26/72 126/22/72 190/187/72 191/184/72
f 18/188/73 81/92/73 80/90/73 19/185/73
f 100/24/74 99/20/74 163/189/74 164/186/74
f 126/22/75 125/18/75 189/190/75 190/187/75
f 17/191/76 82/94/76 81/92/76 18/188/76
f 99/20/77 98/16/77 162/192/77 163/189/77
f 125/18/78 124/12/78 188/193/78 189/190/78
f 16/194/79 83/99/79 82/94/79 17/191/79
f 98/16/80 67/15/80 131/195/80 162/192/80
f 124/12/81 123/10/81 187/196/81 188/193/81
f 15/197/82 84/96/82 83/99/82 16/194/82
f 123/10/83 122/8/83 186/157/83 187/196/83
f 14/156/84 85/155/84 84/96/84 15/197/84
s 1
f 83/99/85 48/98/86 49/95/1 82/94/87
f 85/155/88 46/158/89 47/97/90 84/96/91
f 86/152/92 45/159/93 46/158/89 85/155/88
f 87/149/94 44/161/95 45/159/93 86/152/92
f 88/146/96 43/162/97 44/161/95 87/149/94
f 89/142/98 42/164/99 43/162/97 88/146/96
f 90/138/100 41/39/101 42/164/99 89/142/98
f 91/134/102 40/37/103 41/39/101 90/138/100
f 92/130/104 39/35/105 40/37/103 91/134/102
f 93/125/106 38/31/107 39/35/105 92/130/104
f 94/121/108 37/27/109 38/31/107 93/125/106
f 95/116/110 36/23/111 37/27/109 94/121/108
f 96/101/112 35/19/113 36/23/111 95/116/110
f 65/167/114 33/14/1 34/13/115 97/100/116
f 161/198/117 160/199/118 159/200/119 158/201/120 157/202/121 156/203/122 155/204/123 154/205/124 153/206/125 152/207/126 151/208/127 150/209/128 149/210/129 148/211/130 147/212/131 146/213/132 145/214/133 144/215/134 143/216/135 142/217/136 141/218/137 140/219/138 139/220/139 138/221/140 137/222/141 136/223/142 135/224/143 134/225/144 133/226/145 132/227/146 129/228/147 130/229/148
f 131/195/149 130/230/148 129/231/147 162/192/150
f 162/192/150 129/231/147 132/232/146 163/189/151
f 163/189/151 132/232/146 133/233/145 164/186/152
f 164/186/152 133/233/145 134/234/144 165/183/153
f 165/183/153 134/234/144 135/235/143 166/179/154
f 166/179/154 135/235/143 136/236/142 167/177/155
f 167/177/155 136/236/142 137/237/141 168/175/156
f 168/175/156 137/237/141 138/238/140 169/173/157
f 169/173/157 138/238/140 139/239/139 170/171/158
f 170/171/158 139/239/139 140/240/138 171/169/159
f 171/169/159 140/240/138 141/241/137 172/104/160
f 172/104/160 141/241/137 142/242/136 173/105/161
f 173/105/161 142/242/136 143/243/135 174/109/162
f 174/109/162 143/243/135 144/244/134 175/114/163
f 175/114/163 144/244/134 145/245/133 176/119/164
f 176/119/164 145/245/133 146/246/132 177/124/165
f 177/124/165 146/246/132 147/247/131 178/128/166
f 178/128/166 147/247/131 148/248/130 179/133/167
f 179/133/167 148/248/130 149/249/129 180/137/168
f 180/137/168 149/249/129 150/250/128 181/141/169
f 181/141/169 150/250/128 151/251/127 182/145/170
f 182/145/170 151/251/127 152/252/126 183/148/171
f 183/148/171 152/252/126 153/253/125 184/151/172
f 184/151/172 153/253/125 154/254/124 185/154/173
f 185/154/173 154/254/124 155/255/123 186/157/174
f 186/157/174 155/255/123 156/256/122 187/196/175
f 187/196/175 156/256/122 157/257/121 188/193/176
f 188/193/176 157/257/121 158/258/120 189/190/177
f 189/190/177 158/258/120 159/259/119 190/187/178
f 190/187/178 159/259/119 160/260/118 191/184/179
f 191/184/179 160/260/118 161/261/117 192/180/180
f 192/180/180 161/261/117 130/262/148 131/181/149
