# Blender v2.82 (sub 7) OBJ File: 'Общая сцена2.blend'
# www.blender.org
mtllib Дюбель.mtl
o Дюбель
v -0.003188 -0.015000 -0.002417
v -0.003188 0.015000 -0.002417
v -0.002448 0.015000 -0.003163
v -0.002448 -0.015000 -0.003163
v -0.001540 0.015000 -0.003692
v -0.001540 -0.015000 -0.003692
v -0.000525 0.015000 -0.003965
v -0.000525 -0.015000 -0.003965
v 0.000525 0.015000 -0.003965
v 0.000525 -0.015000 -0.003965
v 0.001540 0.015000 -0.003692
v 0.001540 -0.015000 -0.003692
v 0.002448 0.015000 -0.003163
v 0.002448 -0.015000 -0.003163
v 0.003188 0.015000 -0.002417
v 0.003188 -0.015000 -0.002417
v 0.003021 0.015000 -0.002232
v 0.003021 -0.015000 -0.002232
v 0.002964 0.015000 -0.001990
v 0.002964 -0.015000 -0.001990
v 0.003031 0.015000 -0.001750
v 0.003031 -0.015000 -0.001750
v 0.003205 0.015000 -0.001572
v 0.003205 -0.015000 -0.001572
v 0.003443 0.015000 -0.001500
v 0.003443 -0.015000 -0.001500
v 0.003687 0.015000 -0.001552
v 0.003687 -0.015000 -0.001552
v 0.003964 0.015000 -0.000539
v 0.003964 -0.015000 -0.000539
v 0.003967 0.015000 0.000512
v 0.003967 -0.015000 0.000512
v 0.003697 0.015000 0.001528
v 0.003697 -0.015000 0.001528
v 0.003171 0.015000 0.002438
v 0.003171 -0.015000 0.002438
v 0.002427 0.015000 0.003179
v 0.002427 -0.015000 0.003179
v 0.001515 0.015000 0.003702
v 0.001515 -0.015000 0.003702
v 0.000499 0.015000 0.003969
v 0.000499 -0.015000 0.003969
v 0.000422 0.015000 0.003732
v 0.000422 -0.015000 0.003732
v 0.000241 0.015000 0.003562
v 0.000241 -0.015000 0.003562
v -0.000000 0.015000 0.003500
v -0.000000 -0.015000 0.003500
v -0.000241 0.015000 0.003562
v -0.000241 -0.015000 0.003562
v -0.000422 0.015000 0.003732
v -0.000422 -0.015000 0.003732
v -0.000499 0.015000 0.003969
v -0.000499 -0.015000 0.003969
v -0.001515 0.015000 0.003702
v -0.001515 -0.015000 0.003702
v -0.002427 0.015000 0.003179
v -0.002427 -0.015000 0.003179
v -0.003171 0.015000 0.002438
v -0.003171 -0.015000 0.002438
v -0.003697 0.015000 0.001528
v -0.003697 -0.015000 0.001528
v -0.003967 0.015000 0.000512
v -0.003967 -0.015000 0.000512
v -0.003964 0.015000 -0.000539
v -0.003964 -0.015000 -0.000539
v -0.003687 0.015000 -0.001552
v -0.003687 -0.015000 -0.001552
v -0.003443 0.015000 -0.001500
v -0.003443 -0.015000 -0.001500
v -0.003205 0.015000 -0.001572
v -0.003205 -0.015000 -0.001572
v -0.003031 0.015000 -0.001750
v -0.003031 -0.015000 -0.001750
v -0.002964 0.015000 -0.001990
v -0.002964 -0.015000 -0.001990
v -0.003021 0.015000 -0.002232
v -0.003021 -0.015000 -0.002232
v -0.000453 -0.015000 -0.002712
v -0.001309 -0.015000 -0.002419
v -0.002302 -0.015000 0.001504
v -0.001689 -0.015000 0.002170
v -0.000893 -0.015000 0.002601
v -0.000000 -0.015000 0.002750
v 0.000893 -0.015000 0.002601
v 0.001689 -0.015000 0.002170
v 0.002302 -0.015000 0.001504
v 0.002666 -0.015000 0.000675
v -0.002023 -0.015000 -0.001863
v -0.002518 -0.015000 -0.001105
v -0.002741 -0.015000 -0.000227
v -0.002666 -0.015000 0.000675
v 0.002741 -0.015000 -0.000227
v 0.002518 -0.015000 -0.001105
v 0.002023 -0.015000 -0.001863
v 0.001309 -0.015000 -0.002419
v 0.000453 -0.015000 -0.002712
v -0.002302 0.015000 0.001504
v -0.002666 0.015000 0.000675
v -0.002023 0.015000 -0.001863
v -0.002518 0.015000 -0.001105
v -0.002741 0.015000 -0.000227
v 0.002302 0.015000 0.001504
v 0.001689 0.015000 0.002170
v 0.002023 0.015000 -0.001863
v 0.002518 0.015000 -0.001105
v 0.002741 0.015000 -0.000227
v 0.002666 0.015000 0.000675
v -0.001309 0.015000 -0.002419
v -0.000453 0.015000 -0.002712
v 0.000453 0.015000 -0.002712
v 0.000893 0.015000 0.002601
v -0.000000 0.015000 0.002750
v -0.000893 0.015000 0.002601
v -0.001689 0.015000 0.002170
v 0.001309 0.015000 -0.002419
vn -0.7105 -0.0005 -0.7037
vn -0.7103 0.0008 -0.7039
vn -0.6122 -0.0007 -0.7907
vn -0.6116 0.0006 -0.7911
vn -0.3848 0.0006 -0.9230
vn -0.3850 -0.0006 -0.9229
vn -0.1312 -0.0004 -0.9914
vn -0.1312 0.0000 -0.9914
vn 0.1312 0.0000 -0.9914
vn 0.1312 0.0004 -0.9914
vn 0.3850 0.0006 -0.9229
vn 0.3848 -0.0006 -0.9230
vn 0.6116 -0.0006 -0.7911
vn 0.6122 0.0007 -0.7907
vn 0.7105 0.0005 -0.7037
vn 0.7103 -0.0008 -0.7039
vn 0.7429 -0.0005 0.6695
vn 0.7426 0.0008 0.6697
vn 0.8856 -0.0009 0.4644
vn 0.8860 -0.0005 0.4637
vn 0.9998 -0.0004 -0.0207
vn 0.9998 0.0000 -0.0206
vn 0.8664 0.0002 -0.4994
vn 0.8661 -0.0003 -0.4999
vn 0.5187 -0.0007 -0.8549
vn 0.5182 -0.0004 -0.8553
vn 0.0417 -0.0003 -0.9991
vn 0.0421 0.0003 -0.9991
vn -0.2084 0.0000 -0.9780
vn 0.9646 0.0000 -0.2638
vn 0.9909 0.0000 -0.1345
vn 0.9918 -0.0001 0.1280
vn 0.9918 -0.0000 0.1281
vn 0.9242 0.0003 0.3820
vn 0.9242 -0.0001 0.3820
vn 0.7925 -0.0005 0.6098
vn 0.7927 -0.0001 0.6097
vn 0.6068 -0.0001 0.7948
vn 0.6068 0.0001 0.7949
vn 0.3789 0.0002 0.9254
vn 0.3791 -0.0000 0.9254
vn 0.2542 -0.0000 0.9672
vn -0.9511 -0.0000 0.3090
vn -0.8444 -0.0000 0.5358
vn -0.4821 0.0001 0.8761
vn -0.4817 -0.0003 0.8763
vn 0.0002 -0.0004 1.0000
vn -0.0002 0.0004 1.0000
vn 0.4817 0.0003 0.8763
vn 0.4821 -0.0001 0.8761
vn 0.8444 -0.0000 0.5358
vn 0.9511 -0.0000 0.3090
vn -0.2542 -0.0000 0.9672
vn -0.3791 -0.0000 0.9254
vn -0.3789 -0.0002 0.9254
vn -0.6068 -0.0001 0.7949
vn -0.6068 0.0001 0.7948
vn -0.7927 0.0001 0.6097
vn -0.7925 0.0005 0.6098
vn -0.9242 0.0001 0.3820
vn -0.9242 -0.0003 0.3820
vn -0.9918 -0.0000 0.1281
vn -0.9918 0.0001 0.1280
vn -0.9909 0.0000 -0.1345
vn -0.9646 0.0000 -0.2638
vn 0.2084 0.0000 -0.9780
vn -0.0421 -0.0003 -0.9991
vn -0.0417 0.0003 -0.9991
vn -0.5182 0.0004 -0.8553
vn -0.5187 0.0007 -0.8549
vn -0.8661 0.0003 -0.4999
vn -0.8664 -0.0002 -0.4994
vn -0.9998 -0.0000 -0.0206
vn -0.9998 0.0004 -0.0207
vn -0.8860 0.0005 0.4637
vn -0.8856 0.0009 0.4644
vn -0.7429 0.0005 0.6695
vn -0.7426 -0.0008 0.6697
vn 0.0000 -1.0000 0.0000
vn 0.0000 1.0000 0.0000
vn 0.3247 0.0000 -0.9458
vn 0.0000 0.0000 -1.0000
vn -0.3247 0.0000 -0.9458
vn -0.3248 0.0000 -0.9458
vn -0.6143 0.0000 -0.7890
vn -0.8371 0.0000 -0.5471
vn -0.8372 -0.0001 -0.5470
vn -0.9693 -0.0002 -0.2458
vn -0.9693 0.0000 -0.2458
vn -0.9966 -0.0002 0.0829
vn -0.9966 0.0004 0.0826
vn -0.9157 0.0004 0.4019
vn -0.9157 -0.0002 0.4020
vn -0.7359 -0.0000 0.6771
vn -0.4756 -0.0002 0.8797
vn -0.4759 0.0004 0.8795
vn -0.1646 0.0003 0.9864
vn -0.1639 -0.0002 0.9865
vn 0.1639 0.0002 0.9865
vn 0.1646 -0.0004 0.9864
vn 0.4759 -0.0004 0.8795
vn 0.4756 0.0002 0.8797
vn 0.7359 -0.0000 0.6771
vn 0.9157 0.0002 0.4020
vn 0.9157 -0.0004 0.4019
vn 0.9966 -0.0004 0.0826
vn 0.9966 0.0002 0.0829
vn 0.9693 0.0000 -0.2458
vn 0.9693 0.0002 -0.2458
vn 0.8372 0.0001 -0.5470
vn 0.8371 0.0000 -0.5471
vn 0.6143 0.0000 -0.7890
vn 0.3248 0.0000 -0.9458
usemtl None
s 1
f 1//1 2//2 3//3
f 1//1 3//3 4//4
f 4//4 3//3 5//5
f 4//4 5//5 6//6
f 6//6 5//5 7//7
f 6//6 7//7 8//8
f 8//8 7//7 9//9
f 8//8 9//9 10//10
f 10//10 9//9 11//11
f 10//10 11//11 12//12
f 12//12 11//11 13//13
f 12//12 13//13 14//14
f 14//14 13//13 15//15
f 14//14 15//15 16//16
f 16//17 15//18 17//19
f 16//17 17//19 18//20
f 18//20 17//19 19//21
f 18//20 19//21 20//22
f 20//22 19//21 21//23
f 20//22 21//23 22//24
f 22//24 21//23 23//25
f 22//24 23//25 24//26
f 24//26 23//25 25//27
f 24//26 25//27 26//28
f 26//28 25//27 27//29
f 26//28 27//29 28//29
f 28//30 27//30 29//31
f 28//30 29//31 30//31
f 30//31 29//31 31//32
f 30//31 31//32 32//33
f 32//33 31//32 33//34
f 32//33 33//34 34//35
f 34//35 33//34 35//36
f 34//35 35//36 36//37
f 36//37 35//36 37//38
f 36//37 37//38 38//39
f 38//39 37//38 39//40
f 38//39 39//40 40//41
f 40//41 39//40 41//42
f 40//41 41//42 42//42
f 42//43 41//43 43//44
f 42//43 43//44 44//44
f 44//44 43//44 45//45
f 44//44 45//45 46//46
f 46//46 45//45 47//47
f 46//46 47//47 48//48
f 48//48 47//47 49//49
f 48//48 49//49 50//50
f 50//50 49//49 51//51
f 50//50 51//51 52//51
f 52//51 51//51 53//52
f 52//51 53//52 54//52
f 54//53 53//53 55//54
f 54//53 55//54 56//55
f 56//55 55//54 57//56
f 56//55 57//56 58//57
f 58//57 57//56 59//58
f 58//57 59//58 60//59
f 60//59 59//58 61//60
f 60//59 61//60 62//61
f 62//61 61//60 63//62
f 62//61 63//62 64//63
f 64//63 63//62 65//64
f 64//63 65//64 66//64
f 66//64 65//64 67//65
f 66//64 67//65 68//65
f 68//66 67//66 69//67
f 68//66 69//67 70//68
f 70//68 69//67 71//69
f 70//68 71//69 72//70
f 72//70 71//69 73//71
f 72//70 73//71 74//72
f 74//72 73//71 75//73
f 74//72 75//73 76//74
f 76//74 75//73 77//75
f 76//74 77//75 78//76
f 78//76 77//75 2//77
f 78//76 2//77 1//78
f 58//79 60//79 56//79
f 56//79 60//79 62//79
f 56//79 62//79 54//79
f 66//79 68//79 70//79
f 40//79 42//79 44//79
f 28//79 30//79 36//79
f 36//79 30//79 32//79
f 36//79 32//79 34//79
f 8//79 79//79 80//79
f 18//79 8//79 10//79
f 10//79 12//79 18//79
f 18//79 12//79 14//79
f 18//79 14//79 16//79
f 62//79 81//79 82//79
f 6//79 78//79 4//79
f 4//79 78//79 1//79
f 46//79 36//79 44//79
f 44//79 36//79 38//79
f 44//79 38//79 40//79
f 72//79 62//79 70//79
f 70//79 62//79 64//79
f 70//79 64//79 66//79
f 54//79 62//79 52//79
f 52//79 62//79 82//79
f 52//79 82//79 50//79
f 50//79 82//79 83//79
f 50//79 83//79 48//79
f 48//79 83//79 84//79
f 48//79 84//79 46//79
f 46//79 84//79 85//79
f 46//79 85//79 36//79
f 85//79 86//79 36//79
f 36//79 86//79 87//79
f 36//79 87//79 88//79
f 6//79 8//79 78//79
f 78//79 8//79 80//79
f 78//79 80//79 76//79
f 76//79 80//79 89//79
f 76//79 89//79 74//79
f 74//79 89//79 90//79
f 74//79 90//79 72//79
f 72//79 90//79 91//79
f 72//79 91//79 62//79
f 62//79 91//79 92//79
f 62//79 92//79 81//79
f 28//79 36//79 26//79
f 26//79 36//79 88//79
f 26//79 88//79 24//79
f 24//79 88//79 93//79
f 24//79 93//79 22//79
f 22//79 93//79 94//79
f 22//79 94//79 20//79
f 20//79 94//79 95//79
f 20//79 95//79 18//79
f 18//79 95//79 96//79
f 18//79 96//79 8//79
f 8//79 96//79 97//79
f 8//79 97//79 79//79
f 55//80 53//80 51//80
f 59//80 65//80 61//80
f 61//80 65//80 63//80
f 29//80 27//80 25//80
f 59//80 98//80 99//80
f 41//80 39//80 43//80
f 43//80 39//80 37//80
f 43//80 37//80 35//80
f 3//80 2//80 77//80
f 49//80 59//80 51//80
f 51//80 59//80 57//80
f 51//80 57//80 55//80
f 100//80 75//80 101//80
f 101//80 75//80 73//80
f 101//80 73//80 102//80
f 102//80 73//80 71//80
f 102//80 71//80 99//80
f 99//80 71//80 69//80
f 99//80 69//80 59//80
f 59//80 69//80 67//80
f 59//80 67//80 65//80
f 23//80 33//80 25//80
f 25//80 33//80 31//80
f 25//80 31//80 29//80
f 15//80 13//80 17//80
f 17//80 13//80 11//80
f 17//80 11//80 9//80
f 33//80 103//80 104//80
f 19//80 105//80 21//80
f 21//80 105//80 106//80
f 21//80 106//80 23//80
f 23//80 106//80 107//80
f 23//80 107//80 33//80
f 33//80 107//80 108//80
f 33//80 108//80 103//80
f 109//80 110//80 7//80
f 7//80 110//80 111//80
f 35//80 33//80 43//80
f 43//80 33//80 104//80
f 43//80 104//80 45//80
f 45//80 104//80 112//80
f 45//80 112//80 47//80
f 47//80 112//80 113//80
f 47//80 113//80 49//80
f 49//80 113//80 114//80
f 49//80 114//80 59//80
f 59//80 114//80 115//80
f 59//80 115//80 98//80
f 100//80 109//80 75//80
f 75//80 109//80 7//80
f 75//80 7//80 77//80
f 77//80 7//80 5//80
f 77//80 5//80 3//80
f 9//80 7//80 17//80
f 17//80 7//80 111//80
f 17//80 111//80 19//80
f 19//80 111//80 116//80
f 19//80 116//80 105//80
f 83//81 113//82 84//82
f 84//82 113//82 112//83
f 84//82 112//83 85//84
f 85//84 112//83 104//85
f 85//84 104//85 86//85
f 86//85 104//85 103//86
f 86//85 103//86 87//87
f 87//87 103//86 108//88
f 87//87 108//88 88//89
f 88//89 108//88 107//90
f 88//89 107//90 93//91
f 93//91 107//90 106//92
f 93//91 106//92 94//93
f 94//93 106//92 105//94
f 94//93 105//94 95//94
f 95//94 105//94 116//95
f 95//94 116//95 96//96
f 96//96 116//95 111//97
f 96//96 111//97 97//98
f 97//98 111//97 110//99
f 97//98 110//99 79//100
f 79//100 110//99 109//101
f 79//100 109//101 80//102
f 80//102 109//101 100//103
f 80//102 100//103 89//103
f 89//103 100//103 101//104
f 89//103 101//104 90//105
f 90//105 101//104 102//106
f 90//105 102//106 91//107
f 91//107 102//106 99//108
f 91//107 99//108 92//109
f 92//109 99//108 98//110
f 92//109 98//110 81//111
f 81//111 98//110 115//112
f 81//111 115//112 82//112
f 82//112 115//112 114//113
f 82//112 114//113 83//81
f 83//81 114//113 113//82
