# Blender v2.82 (sub 7) OBJ File: 'Общая сцена2.blend'
# www.blender.org
o Крепеж_на_трубу
v 0.005661 0.007736 0.029803
v 0.001661 0.007736 0.029803
v 0.005661 -0.007264 0.029803
v 0.001661 -0.007264 0.029803
v 0.005661 -0.001821 0.020883
v 0.005661 -0.002246 0.022002
v 0.005661 -0.007264 0.012303
v 0.005661 -0.002101 0.023190
v 0.005661 -0.001422 0.024174
v 0.005661 0.001894 0.024174
v 0.005661 0.002574 0.023190
v 0.005661 0.002294 0.020883
v 0.005661 0.001398 0.020090
v 0.005661 0.007736 0.012303
v 0.005661 0.000236 0.019803
v 0.005661 -0.000926 0.020090
v 0.005661 0.002718 0.022002
v 0.005661 -0.000362 0.024731
v 0.005661 0.000236 0.024803
v 0.005661 0.000835 0.024731
v 0.003062 -0.007264 0.012030
v 0.003062 0.007736 0.012030
v 0.000576 -0.007264 0.011222
v 0.000576 0.007736 0.011222
v -0.001687 -0.007264 0.009916
v -0.001687 0.007736 0.009916
v -0.003629 -0.007264 0.008167
v -0.003629 0.007736 0.008167
v -0.005165 -0.007264 0.006053
v -0.005165 0.007736 0.006053
v -0.006228 -0.007264 0.003666
v -0.006228 0.007736 0.003666
v -0.006771 -0.007264 0.001110
v -0.006771 0.007736 0.001110
v -0.006771 -0.007264 -0.001503
v -0.006771 0.007736 -0.001503
v -0.006228 -0.007264 -0.004060
v -0.006228 0.007736 -0.004060
v -0.005165 -0.007264 -0.006447
v -0.005165 0.007736 -0.006447
v -0.003629 -0.007264 -0.008561
v -0.003629 0.007736 -0.008561
v -0.001687 -0.007264 -0.010310
v -0.001687 0.007736 -0.010310
v 0.000576 -0.007264 -0.011616
v 0.000576 0.007736 -0.011616
v 0.003062 -0.007264 -0.012424
v 0.003062 0.007736 -0.012424
v 0.005661 -0.007264 -0.012697
v 0.005661 0.007736 -0.012697
v 0.005661 0.002294 -0.024117
v 0.005661 0.001398 -0.024910
v 0.005661 0.007736 -0.030197
v 0.005661 0.000236 -0.025197
v 0.005661 -0.007264 -0.030197
v 0.005661 -0.000926 -0.024910
v 0.005661 -0.002101 -0.021810
v 0.005661 -0.002246 -0.022998
v 0.005661 -0.001821 -0.024117
v 0.005661 0.001894 -0.020826
v 0.005661 0.002574 -0.021810
v 0.005661 0.002718 -0.022998
v 0.005661 -0.001422 -0.020826
v 0.005661 -0.000362 -0.020269
v 0.005661 0.000835 -0.020269
v 0.001661 0.007736 -0.030197
v 0.001661 -0.007264 -0.030197
v 0.001661 0.001894 -0.020826
v 0.001661 0.000835 -0.020269
v 0.001661 0.007736 -0.016205
v 0.001661 -0.001422 -0.020826
v 0.001661 -0.002101 -0.021810
v 0.001661 -0.007264 -0.016205
v 0.001661 -0.007264 -0.030197
v 0.001661 -0.002246 -0.022998
v 0.001661 -0.001821 -0.024117
v 0.001661 -0.000362 -0.020269
v 0.001661 0.001398 -0.024910
v 0.001661 0.000236 -0.025197
v 0.001661 -0.000926 -0.024910
v 0.001661 0.002294 -0.024117
v 0.001661 0.002718 -0.022998
v 0.001661 0.002574 -0.021810
v 0.001661 -0.007264 -0.016205
v -0.001282 -0.007264 -0.015165
v -0.001282 0.007736 -0.015165
v -0.003976 -0.007264 -0.013590
v -0.003976 0.007736 -0.013590
v -0.006326 -0.007264 -0.011536
v -0.006326 0.007736 -0.011536
v -0.008246 -0.007264 -0.009077
v -0.008246 0.007736 -0.009077
v -0.009670 -0.007264 -0.006299
v -0.009670 0.007736 -0.006299
v -0.010544 -0.007264 -0.003304
v -0.010544 0.007736 -0.003304
v -0.010839 -0.007264 -0.000197
v -0.010839 0.007736 -0.000197
v -0.010544 -0.007264 0.002910
v -0.010544 0.007736 0.002910
v -0.009670 -0.007264 0.005906
v -0.009670 0.007736 0.005906
v -0.008246 -0.007264 0.008683
v -0.008246 0.007736 0.008683
v -0.006326 -0.007264 0.011143
v -0.006326 0.007736 0.011143
v -0.003976 -0.007264 0.013197
v -0.003976 0.007736 0.013197
v -0.001282 -0.007264 0.014771
v -0.001282 0.007736 0.014771
v 0.001661 -0.007264 0.015811
v 0.001661 0.007736 0.015811
v 0.001661 -0.000362 0.024731
v 0.001661 -0.007264 0.029803
v 0.001661 0.000835 0.024731
v 0.001661 0.001894 0.024174
v 0.001661 -0.001422 0.024174
v 0.001661 -0.002101 0.023190
v 0.001661 -0.007264 0.015811
v 0.001661 -0.002246 0.022002
v 0.001661 -0.001821 0.020883
v 0.001661 0.001398 0.020090
v 0.001661 0.000236 0.019803
v 0.001661 -0.000926 0.020090
v 0.001661 0.002294 0.020883
v 0.001661 0.002718 0.022002
v 0.001661 0.002574 0.023190
vn 0.0000 0.0000 1.0000
vn 1.0000 0.0000 0.0000
vn 0.0000 0.0000 -1.0000
vn -1.0000 0.0000 0.0000
vn 0.0000 1.0000 0.0000
vn 0.0000 -1.0000 0.0000
vn 0.2774 -0.7314 -0.6230
vn 0.2774 0.7314 -0.6230
vn 0.1418 0.7314 -0.6670
vn 0.1418 -0.7314 -0.6670
vn 0.4008 -0.7314 -0.5517
vn 0.4008 0.7314 -0.5517
vn 0.5068 -0.7314 -0.4563
vn 0.5068 0.7314 -0.4563
vn 0.5906 -0.7314 -0.3410
vn 0.5906 0.7314 -0.3410
vn 0.6485 -0.7314 -0.2107
vn 0.6485 0.7314 -0.2107
vn 0.6037 0.5831 -0.5436
vn 0.6037 -0.5831 -0.5436
vn 0.6782 -0.7314 -0.0713
vn 0.6782 0.7314 -0.0713
vn 0.6782 -0.7314 0.0713
vn 0.6782 0.7314 0.0713
vn 0.6485 -0.7314 0.2107
vn 0.6485 0.7314 0.2107
vn 0.5906 -0.7314 0.3410
vn 0.5906 0.7314 0.3410
vn 0.5068 -0.7314 0.4563
vn 0.5068 0.7314 0.4563
vn 0.4008 -0.7314 0.5517
vn 0.4008 0.7314 0.5517
vn 0.2774 -0.7314 0.6230
vn 0.2774 0.7314 0.6230
vn 0.1418 -0.7314 0.6670
vn 0.1418 0.7314 0.6670
vn 0.6037 -0.5831 0.5436
vn 0.6037 0.5831 0.5436
vn -0.3059 -0.6864 -0.6597
vn -0.3059 0.6864 -0.6597
vn -0.4130 0.8625 -0.2922
vn -0.1126 -0.9411 -0.3187
vn -0.4247 -0.6864 -0.5903
vn -0.4247 0.6864 -0.5903
vn -0.5282 -0.6864 -0.4997
vn -0.5282 0.6864 -0.4997
vn -0.6129 -0.6864 -0.3913
vn -0.6129 0.6864 -0.3913
vn -0.6756 -0.6864 -0.2689
vn -0.6756 0.6864 -0.2689
vn -0.7142 -0.6864 -0.1369
vn -0.7142 0.6864 -0.1369
vn -0.7272 -0.6864 0.0000
vn -0.7272 0.6864 0.0000
vn -0.7142 -0.6864 0.1369
vn -0.7142 0.6864 0.1369
vn -0.6756 -0.6864 0.2689
vn -0.6756 0.6864 0.2689
vn -0.6129 -0.6864 0.3913
vn -0.6129 0.6864 0.3913
vn -0.5282 -0.6864 0.4997
vn -0.5282 0.6864 0.4997
vn -0.4247 -0.6864 0.5903
vn -0.4247 0.6864 0.5903
vn -0.3059 -0.6864 0.6597
vn -0.3059 0.6864 0.6597
vn -0.7651 0.2992 0.5701
vn 0.7651 0.0000 0.6438
vn -0.7651 0.0000 0.6438
vn 0.7651 -0.2992 0.5701
vn -0.7651 -0.2992 0.5701
vn 0.7651 -0.5299 0.3657
vn -0.7651 -0.5299 0.3657
vn 0.7651 -0.6391 0.0776
vn -0.7651 -0.6391 0.0776
vn 0.7651 -0.6020 -0.2283
vn -0.7651 -0.6020 -0.2283
vn 0.7651 -0.4270 -0.4819
vn -0.7651 -0.4270 -0.4819
vn 0.7651 -0.1541 -0.6251
vn -0.7651 -0.1541 -0.6251
vn 0.7651 0.1541 -0.6251
vn -0.7651 0.1541 -0.6251
vn 0.7651 0.4270 -0.4819
vn -0.7651 0.4270 -0.4819
vn 0.7651 0.6020 -0.2283
vn -0.7651 0.6020 -0.2283
vn 0.7651 0.6391 0.0776
vn -0.7651 0.6391 0.0776
vn 0.7651 0.5299 0.3657
vn -0.7651 0.5299 0.3657
vn 0.7651 0.2992 0.5701
vn 0.7358 0.0000 -0.6772
vn 0.7500 0.1968 -0.6315
vn -0.7624 0.1585 -0.6273
vn 0.7500 -0.1968 -0.6315
vn -0.7624 -0.1585 -0.6273
vn -0.1126 -0.9411 0.3187
vn -0.4130 0.8625 0.2922
s off
f 1//1 2//1 3//1
f 3//1 2//1 4//1
f 5//2 6//2 7//2
f 7//2 6//2 3//2
f 3//2 6//2 8//2
f 3//2 8//2 9//2
f 1//2 10//2 11//2
f 12//2 13//2 14//2
f 14//2 13//2 15//2
f 14//2 15//2 7//2
f 7//2 15//2 16//2
f 7//2 16//2 5//2
f 1//2 11//2 14//2
f 14//2 11//2 17//2
f 14//2 17//2 12//2
f 9//2 18//2 3//2
f 3//2 18//2 19//2
f 3//2 19//2 1//2
f 1//2 19//2 20//2
f 1//2 20//2 10//2
f 51//2 52//2 53//2
f 53//2 52//2 54//2
f 53//2 54//2 55//2
f 55//2 54//2 56//2
f 57//2 49//2 58//2
f 58//2 49//2 55//2
f 58//2 55//2 59//2
f 59//2 55//2 56//2
f 50//2 60//2 61//2
f 50//2 61//2 53//2
f 53//2 61//2 62//2
f 53//2 62//2 51//2
f 57//2 63//2 49//2
f 49//2 63//2 64//2
f 49//2 64//2 50//2
f 50//2 64//2 65//2
f 50//2 65//2 60//2
f 66//3 53//3 67//3
f 67//3 53//3 55//3
f 68//4 69//4 70//4
f 71//4 72//4 73//4
f 73//4 72//4 74//4
f 74//4 72//4 75//4
f 74//4 75//4 76//4
f 70//4 69//4 73//4
f 73//4 69//4 77//4
f 73//4 77//4 71//4
f 78//4 66//4 79//4
f 79//4 66//4 74//4
f 79//4 74//4 80//4
f 80//4 74//4 76//4
f 78//4 81//4 66//4
f 66//4 81//4 82//4
f 66//4 82//4 70//4
f 70//4 82//4 83//4
f 70//4 83//4 68//4
f 113//4 114//4 115//4
f 115//4 114//4 2//4
f 115//4 2//4 116//4
f 113//4 117//4 114//4
f 114//4 117//4 118//4
f 114//4 118//4 119//4
f 119//4 118//4 120//4
f 119//4 120//4 121//4
f 122//4 112//4 123//4
f 123//4 112//4 119//4
f 123//4 119//4 124//4
f 124//4 119//4 121//4
f 122//4 125//4 112//4
f 112//4 125//4 126//4
f 112//4 126//4 2//4
f 2//4 126//4 127//4
f 2//4 127//4 116//4
f 112//5 2//5 1//5
f 53//5 66//5 50//5
f 50//5 66//5 70//5
f 50//5 70//5 48//5
f 48//5 70//5 46//5
f 46//5 70//5 86//5
f 46//5 86//5 44//5
f 44//5 86//5 88//5
f 44//5 88//5 42//5
f 42//5 88//5 90//5
f 42//5 90//5 40//5
f 40//5 90//5 92//5
f 40//5 92//5 38//5
f 38//5 92//5 94//5
f 38//5 94//5 36//5
f 1//5 14//5 112//5
f 112//5 14//5 22//5
f 112//5 22//5 110//5
f 110//5 22//5 24//5
f 110//5 24//5 108//5
f 108//5 24//5 26//5
f 108//5 26//5 106//5
f 106//5 26//5 28//5
f 106//5 28//5 104//5
f 104//5 28//5 30//5
f 104//5 30//5 102//5
f 102//5 30//5 32//5
f 102//5 32//5 100//5
f 100//5 32//5 34//5
f 100//5 34//5 98//5
f 98//5 34//5 36//5
f 98//5 36//5 96//5
f 96//5 36//5 94//5
f 84//6 67//6 55//6
f 3//6 4//6 7//6
f 7//6 4//6 111//6
f 7//6 111//6 21//6
f 55//6 49//6 84//6
f 84//6 49//6 47//6
f 84//6 47//6 85//6
f 85//6 47//6 45//6
f 85//6 45//6 87//6
f 87//6 45//6 43//6
f 87//6 43//6 89//6
f 89//6 43//6 41//6
f 89//6 41//6 91//6
f 91//6 41//6 39//6
f 91//6 39//6 93//6
f 93//6 39//6 37//6
f 93//6 37//6 95//6
f 95//6 37//6 35//6
f 95//6 35//6 97//6
f 97//6 35//6 33//6
f 21//6 111//6 23//6
f 23//6 111//6 109//6
f 23//6 109//6 25//6
f 25//6 109//6 107//6
f 25//6 107//6 27//6
f 27//6 107//6 105//6
f 27//6 105//6 29//6
f 29//6 105//6 103//6
f 29//6 103//6 31//6
f 31//6 103//6 101//6
f 31//6 101//6 33//6
f 33//6 101//6 99//6
f 33//6 99//6 97//6
s 1
f 23//7 24//8 22//9 21//10
f 25//11 26//12 24//8 23//7
f 27//13 28//14 26//12 25//11
f 29//15 30//16 28//14 27//13
f 31//17 32//18 30//16 29//15
f 21//10 22//9 14//19 7//20
f 33//21 34//22 32//18 31//17
f 35//23 36//24 34//22 33//21
f 37//25 38//26 36//24 35//23
f 39//27 40//28 38//26 37//25
f 41//29 42//30 40//28 39//27
f 43//31 44//32 42//30 41//29
f 45//33 46//34 44//32 43//31
f 47//35 48//36 46//34 45//33
f 49//37 50//38 48//36 47//35
f 85//39 86//40 70//41 84//42
f 87//43 88//44 86//40 85//39
f 89//45 90//46 88//44 87//43
f 91//47 92//48 90//46 89//45
f 93//49 94//50 92//48 91//47
f 95//51 96//52 94//50 93//49
f 97//53 98//54 96//52 95//51
f 99//55 100//56 98//54 97//53
f 101//57 102//58 100//56 99//55
f 103//59 104//60 102//58 101//57
f 105//61 106//62 104//60 103//59
f 107//63 108//64 106//62 105//61
f 109//65 110//66 108//64 107//63
f 80//67 54//68 79//69
f 79//69 54//68 52//70
f 79//69 52//70 78//71
f 78//71 52//70 51//72
f 78//71 51//72 81//73
f 81//73 51//72 62//74
f 81//73 62//74 82//75
f 82//75 62//74 61//76
f 82//75 61//76 83//77
f 83//77 61//76 60//78
f 83//77 60//78 68//79
f 68//79 60//78 65//80
f 68//79 65//80 69//81
f 69//81 65//80 64//82
f 69//81 64//82 77//83
f 77//83 64//82 63//84
f 77//83 63//84 71//85
f 71//85 63//84 57//86
f 71//85 57//86 72//87
f 72//87 57//86 58//88
f 72//87 58//88 75//89
f 75//89 58//88 59//90
f 75//89 59//90 76//91
f 76//91 59//90 56//92
f 76//91 56//92 80//67
f 80//67 56//92 54//68
f 19//93 18//94 113//95
f 113//95 18//94 9//84
f 113//95 9//84 117//85
f 117//85 9//84 8//86
f 117//85 8//86 118//87
f 118//87 8//86 6//88
f 118//87 6//88 120//89
f 120//89 6//88 5//90
f 120//89 5//90 121//91
f 121//91 5//90 16//92
f 121//91 16//92 124//67
f 124//67 16//92 15//68
f 124//67 15//68 123//69
f 123//69 15//68 13//70
f 123//69 13//70 122//71
f 122//71 13//70 12//72
f 122//71 12//72 125//73
f 125//73 12//72 17//74
f 125//73 17//74 126//75
f 126//75 17//74 11//76
f 126//75 11//76 127//77
f 127//77 11//76 10//78
f 127//77 10//78 116//79
f 116//79 10//78 20//96
f 116//79 20//96 115//97
f 115//97 20//96 19//93
f 115//97 19//93 113//95
f 111//98 112//99 110//66 109//65
