# Blender v2.82 (sub 7) OBJ File: 'Фиксаторы.blend'
# www.blender.org
mtllib Фиксатор1.mtl
o Фиксатор_треугольник
v 0.003522 0.000549 -0.027292
v 0.017324 0.000549 0.011748
v 0.004454 0.000549 -0.028020
v 0.018206 0.000549 0.011795
v 0.005527 0.000549 -0.029335
v 0.019956 0.000549 0.012390
v 0.020371 0.000549 0.012651
v -0.019436 0.000549 0.021355
v -0.020979 0.000549 0.020337
v -0.022306 0.000549 0.025745
v -0.022046 0.000549 0.018828
v -0.022306 0.000549 0.018125
v 0.022306 0.000549 0.025745
v -0.015805 0.000549 0.021449
v -0.017630 0.000549 0.021743
v 0.022306 0.000549 0.018125
v 0.022046 0.000549 0.018828
v 0.020979 0.000549 0.020337
v 0.019437 0.000549 0.021355
v 0.013069 0.000549 0.019061
v 0.012730 0.000549 0.018245
v -0.012730 0.000549 0.018245
v 0.017630 0.000549 0.021743
v 0.015805 0.000549 0.021449
v 0.014213 0.000549 0.020512
v -0.014212 0.000549 0.020512
v -0.013069 0.000549 0.019061
v 0.011212 0.000549 0.013745
v -0.011212 0.000549 0.013745
v -0.012730 0.000549 0.015245
v 0.000694 0.000549 -0.026292
v 0.000000 0.000549 -0.026255
v 0.000000 0.000549 -0.017968
v -0.000694 0.000549 -0.026292
v -0.014496 0.000549 0.012748
v -0.013978 0.000549 0.013196
v 0.014496 0.000549 0.012748
v 0.012730 0.000549 0.015245
v 0.012980 0.000549 0.014608
v 0.013978 0.000549 0.013196
v -0.012980 0.000549 0.014608
v -0.018206 0.000549 0.011795
v -0.017324 0.000549 0.011748
v -0.003522 0.000549 -0.027292
v -0.020371 0.000549 0.012651
v -0.019956 0.000549 0.012390
v -0.005527 0.000549 -0.029335
v -0.004454 0.000549 -0.028020
v 0.000000 -0.002451 -0.017968
v 0.001958 -0.002451 -0.028154
v 0.004963 -0.002451 -0.032150
v -0.016500 -0.002451 0.015013
v -0.015768 -0.002451 0.015745
v -0.011212 -0.002451 0.013745
v -0.015500 -0.002451 0.016745
v 0.005780 -0.002451 -0.029782
v 0.005527 -0.002451 -0.029335
v 0.004097 -0.002451 -0.037801
v -0.017500 -0.002451 0.014745
v -0.003005 -0.002451 -0.028759
v -0.004097 -0.002451 -0.037801
v -0.002174 -0.002451 -0.038881
v -0.001958 -0.002451 -0.037356
v 0.000000 -0.002451 -0.039255
v 0.003005 -0.002451 -0.036751
v -0.005548 -0.002451 -0.036141
v -0.004963 -0.002451 -0.033360
v -0.006361 -0.002451 -0.034090
v 0.017500 -0.002451 0.014745
v 0.016500 -0.002451 0.015013
v 0.006442 -0.002451 -0.031886
v 0.006361 -0.002451 -0.034090
v 0.005549 -0.002451 -0.036141
v -0.022306 -0.002451 0.025745
v 0.015768 -0.002451 0.017745
v 0.016500 -0.002451 0.018477
v 0.002174 -0.002451 -0.038881
v 0.011212 -0.002451 0.013745
v -0.019500 -0.002451 0.016745
v -0.022256 -0.002451 0.015201
v -0.019232 -0.002451 0.015745
v -0.021370 -0.002451 0.013579
v -0.018500 -0.002451 0.015013
v -0.020371 -0.002451 0.012651
v -0.005527 -0.002451 -0.029335
v -0.005780 -0.002451 -0.029782
v -0.006442 -0.002451 -0.031886
v 0.022306 -0.002451 0.025745
v 0.017500 -0.002451 0.018745
v 0.018500 -0.002451 0.018477
v 0.022306 -0.002451 0.018125
v 0.019232 -0.002451 0.017745
v 0.022492 -0.002451 0.017034
v 0.019500 -0.002451 0.016745
v 0.022256 -0.002451 0.015201
v 0.019232 -0.002451 0.015745
v 0.018500 -0.002451 0.015013
v 0.020371 -0.002451 0.012651
v 0.021370 -0.002451 0.013579
v 0.015768 -0.002451 0.015745
v 0.015500 -0.002451 0.016745
v -0.018500 -0.002451 0.018477
v -0.019232 -0.002451 0.017745
v -0.022306 -0.002451 0.018125
v -0.022492 -0.002451 0.017034
v -0.017500 -0.002451 0.018745
v -0.016500 -0.002451 0.018477
v -0.015768 -0.002451 0.017745
v -0.003522 0.002549 -0.027292
v -0.002805 0.003549 -0.026891
v -0.004454 0.003549 -0.028020
v 0.003522 0.002549 -0.027292
v 0.002805 0.003549 -0.026891
v 0.004454 0.003549 -0.028020
v 0.005780 0.003549 -0.029782
v 0.006442 0.003549 -0.031886
v 0.006361 0.003549 -0.034090
v 0.005549 0.003549 -0.036141
v 0.004097 0.003549 -0.037801
v 0.002174 0.003549 -0.038881
v 0.000000 0.003549 -0.039255
v -0.002174 0.003549 -0.038881
v -0.004097 0.003549 -0.037801
v -0.005548 0.003549 -0.036141
v -0.006361 0.003549 -0.034090
v -0.006442 0.003549 -0.031886
v -0.005780 0.003549 -0.029782
v -0.012730 0.002549 0.018245
v -0.012548 0.003549 0.017435
v -0.013069 0.003549 0.019061
v -0.021370 0.003549 0.013579
v -0.018206 0.003549 0.011795
v -0.016500 0.003549 0.011846
v -0.017324 0.002549 0.011748
v -0.019956 0.003549 0.012390
v -0.022046 0.003549 0.018828
v -0.020979 0.003549 0.020337
v -0.019436 0.003549 0.021355
v -0.017630 0.003549 0.021743
v -0.015805 0.003549 0.021449
v -0.014212 0.003549 0.020512
v -0.022492 0.003549 0.017034
v -0.022256 0.003549 0.015201
v 0.018206 0.003549 0.011795
v 0.019956 0.003549 0.012390
v 0.022492 0.003549 0.017034
v 0.013069 0.003549 0.019061
v 0.012548 0.003549 0.017435
v 0.012730 0.002549 0.018245
v 0.022046 0.003549 0.018828
v 0.020979 0.003549 0.020337
v 0.019437 0.003549 0.021355
v 0.017630 0.003549 0.021743
v 0.015805 0.003549 0.021449
v 0.014213 0.003549 0.020512
v 0.017324 0.002549 0.011748
v 0.016500 0.003549 0.011846
v 0.021370 0.003549 0.013579
v 0.022256 0.003549 0.015201
v 0.018500 0.003549 0.018477
v 0.017500 0.003549 0.018745
v -0.001689 0.003549 -0.026478
v 0.000000 0.003549 -0.026255
v 0.000000 0.003549 -0.030255
v 0.012525 0.003549 0.016245
v -0.015370 0.003549 0.012221
v 0.001689 0.003549 -0.026478
v 0.001250 0.003549 -0.030590
v 0.002165 0.003549 -0.031505
v 0.002500 0.003549 -0.032755
v 0.015370 0.003549 0.012221
v 0.016500 0.003549 0.018477
v -0.012525 0.003549 0.016245
v -0.015768 0.003549 0.015745
v -0.015500 0.003549 0.016745
v -0.015768 0.003549 0.017745
v -0.016500 0.003549 0.018477
v -0.017500 0.003549 0.018745
v -0.018500 0.003549 0.018477
v -0.019232 0.003549 0.017745
v 0.000000 0.003549 -0.035255
v -0.001250 0.003549 -0.034920
v -0.002165 0.003549 -0.034005
v -0.002500 0.003549 -0.032755
v -0.002165 0.003549 -0.031505
v -0.001250 0.003549 -0.030590
v 0.001250 0.003549 -0.034920
v 0.002165 0.003549 -0.034005
v -0.016500 0.003549 0.015013
v -0.013978 0.003549 0.013196
v -0.012980 0.003549 0.014608
v 0.015768 0.003549 0.017745
v 0.015500 0.003549 0.016745
v 0.012980 0.003549 0.014608
v 0.015768 0.003549 0.015745
v 0.013978 0.003549 0.013196
v 0.016500 0.003549 0.015013
v 0.017500 0.003549 0.014745
v 0.018500 0.003549 0.015013
v 0.019232 0.003549 0.015745
v 0.019500 0.003549 0.016745
v -0.019500 0.003549 0.016745
v -0.019232 0.003549 0.015745
v -0.018500 0.003549 0.015013
v -0.017500 0.003549 0.014745
v 0.019232 0.003549 0.017745
v 0.000694 0.002739 -0.026292
v -0.000694 0.002739 -0.026292
v -0.014496 0.002739 0.012748
v -0.012730 0.002739 0.015245
v 0.012730 0.002739 0.015245
v 0.014496 0.002739 0.012748
v -0.001250 0.001549 -0.030590
v 0.000000 0.001549 -0.030255
v 0.001250 0.001549 -0.030590
v 0.002165 0.001549 -0.031505
v 0.002500 0.001549 -0.032755
v 0.002165 0.001549 -0.034005
v 0.001250 0.001549 -0.034920
v 0.000000 0.001549 -0.035255
v -0.001250 0.001549 -0.034920
v -0.002165 0.001549 -0.034005
v -0.002500 0.001549 -0.032755
v -0.002165 0.001549 -0.031505
v -0.004963 0.001549 -0.033360
v -0.001958 0.001549 -0.037356
v 0.001958 0.001549 -0.028154
v -0.003005 0.001549 -0.028759
v 0.003005 0.001549 -0.036751
v 0.004963 0.001549 -0.032150
vn -0.0000 1.0000 0.0000
vn 0.0000 -1.0000 -0.0000
vn -0.5635 0.0745 0.8227
vn 0.6161 0.0000 0.7877
vn 0.8705 0.0000 0.4922
vn 0.5635 0.0745 0.8227
vn 0.7988 0.0000 0.6016
vn 0.7741 0.0291 0.6324
vn -0.6161 0.0000 0.7877
vn -0.8705 0.0000 0.4922
vn 0.9540 0.0000 0.2998
vn 0.9993 0.0000 -0.0364
vn 0.9296 0.0000 -0.3685
vn 0.7529 0.0000 -0.6582
vn 0.4894 0.0000 -0.8720
vn 0.1697 0.0000 -0.9855
vn -0.1697 0.0000 -0.9855
vn -0.4894 0.0000 -0.8720
vn -0.7529 0.0000 -0.6582
vn -0.9296 0.0000 -0.3685
vn -0.9993 0.0000 -0.0364
vn -0.9540 0.0000 0.2998
vn -0.7986 0.0224 0.6014
vn -0.7744 0.0000 0.6327
vn -0.9428 0.0000 -0.3333
vn 0.9498 0.0731 0.3043
vn -0.6805 0.0000 -0.7328
vn -0.5315 0.0837 -0.8429
vn 0.0297 0.0731 -0.9969
vn -0.6437 0.0000 -0.7653
vn -0.3218 0.0000 -0.9468
vn -0.0533 0.0000 -0.9986
vn -0.8165 0.0000 0.5774
vn -0.5510 0.0000 0.8345
vn -0.2103 0.0000 0.9776
vn 0.1592 0.0000 0.9872
vn 0.5069 0.0000 0.8620
vn 0.7854 0.0000 0.6190
vn 0.9237 0.0000 0.3831
vn -0.9701 0.0276 0.2413
vn -0.9378 0.0000 0.3472
vn -0.8777 0.0000 -0.4792
vn -0.9918 0.0000 -0.1276
vn -0.9858 0.0000 0.1679
vn -1.0000 0.0000 0.0000
vn 0.0000 0.0000 1.0000
vn 1.0000 0.0000 0.0000
vn 0.3218 0.0000 -0.9468
vn 0.9858 0.0000 0.1679
vn 0.9356 0.0680 0.3464
vn -0.9498 0.0731 0.3043
vn 0.9704 0.0000 0.2413
vn 0.8165 0.0000 0.5774
vn 0.5510 0.0000 0.8345
vn 0.2103 0.0000 0.9776
vn -0.1592 0.0000 0.9872
vn -0.5069 0.0000 0.8620
vn -0.7854 0.0000 0.6190
vn -0.9237 0.0000 0.3831
vn 0.0533 0.0000 -0.9986
vn -0.0297 0.0731 -0.9969
vn 0.6436 0.0223 -0.7651
vn 0.5333 0.0000 -0.8459
vn 0.9918 0.0000 -0.1276
vn 0.8777 0.0000 -0.4792
vn 0.6805 0.0000 -0.7328
vn 0.9428 0.0000 -0.3333
vn -0.9428 0.0000 0.3333
vn 0.9428 0.0000 0.3333
vn 0.0000 0.0000 -1.0000
vn 0.1307 0.0667 0.9892
vn -0.0535 0.0000 0.9986
vn -0.1307 0.0667 0.9892
vn 0.0535 0.0000 0.9986
vn 0.5713 0.0859 -0.8162
vn 0.9312 0.0000 -0.3646
vn 0.9600 0.0859 -0.2666
vn 0.8165 0.0000 -0.5774
vn 0.6541 0.0000 -0.7564
vn -0.9600 0.0859 -0.2666
vn -0.6541 0.0000 -0.7564
vn -0.5713 0.0859 -0.8162
vn -0.8165 0.0000 -0.5774
vn -0.9312 0.0000 -0.3646
vn 0.2588 0.0000 -0.9659
vn -0.2588 0.0000 -0.9659
vn -0.7071 0.0000 -0.7071
vn -0.9659 0.0000 -0.2588
vn -0.9659 0.0000 0.2588
vn -0.7071 0.0000 0.7071
vn -0.2588 0.0000 0.9659
vn 0.2588 0.0000 0.9659
vn 0.7071 0.0000 0.7071
vn 0.9659 0.0000 0.2588
vn 0.9659 0.0000 -0.2588
vn 0.7071 0.0000 -0.7071
vn 0.0000 0.7771 -0.6293
vn 0.0000 0.6293 0.7771
vn 0.7327 0.6293 -0.2590
vn -0.5933 0.7771 0.2098
vn 0.5933 0.7771 0.2098
vn -0.7327 0.6293 -0.2590
vn 0.9201 0.0000 -0.3916
vn 0.1209 0.0000 -0.9927
vn -0.7992 0.0000 -0.6011
vn -0.9201 0.0000 0.3916
vn -0.1209 0.0000 0.9927
vn 0.7992 0.0000 0.6011
usemtl Материал
s off
f 1//1 2//1 3//1
f 3//1 2//1 4//1
f 3//1 4//1 5//1
f 5//1 4//1 6//1
f 5//1 6//1 7//1
f 8//1 9//1 10//1
f 10//1 9//1 11//1
f 10//1 11//1 12//1
f 13//1 14//1 10//1
f 10//1 14//1 15//1
f 10//1 15//1 8//1
f 16//1 17//1 13//1
f 13//1 17//1 18//1
f 13//1 18//1 19//1
f 20//1 21//1 22//1
f 19//1 23//1 13//1
f 13//1 23//1 24//1
f 13//1 24//1 14//1
f 14//1 24//1 25//1
f 14//1 25//1 26//1
f 26//1 25//1 20//1
f 26//1 20//1 27//1
f 27//1 20//1 22//1
f 28//1 29//1 30//1
f 31//1 32//1 33//1
f 34//1 35//1 36//1
f 31//1 33//1 37//1
f 30//1 38//1 28//1
f 28//1 38//1 39//1
f 28//1 39//1 33//1
f 33//1 39//1 40//1
f 33//1 40//1 37//1
f 32//1 34//1 33//1
f 33//1 34//1 36//1
f 33//1 36//1 29//1
f 29//1 36//1 41//1
f 29//1 41//1 30//1
f 42//1 43//1 44//1
f 45//1 46//1 47//1
f 47//1 46//1 42//1
f 47//1 42//1 48//1
f 48//1 42//1 44//1
f 49//2 50//2 51//2
f 52//2 49//2 53//2
f 53//2 49//2 54//2
f 53//2 54//2 55//2
f 56//2 57//2 58//2
f 52//2 59//2 49//2
f 49//2 59//2 60//2
f 49//2 60//2 50//2
f 61//2 62//2 63//2
f 63//2 62//2 64//2
f 63//2 64//2 65//2
f 61//2 63//2 66//2
f 66//2 63//2 67//2
f 66//2 67//2 68//2
f 57//2 69//2 70//2
f 71//2 56//2 72//2
f 72//2 56//2 58//2
f 72//2 58//2 73//2
f 74//2 75//2 76//2
f 64//2 77//2 65//2
f 65//2 77//2 58//2
f 65//2 58//2 51//2
f 51//2 58//2 57//2
f 51//2 57//2 49//2
f 49//2 57//2 70//2
f 49//2 70//2 78//2
f 79//2 80//2 81//2
f 81//2 80//2 82//2
f 81//2 82//2 83//2
f 83//2 82//2 84//2
f 83//2 84//2 59//2
f 59//2 84//2 85//2
f 59//2 85//2 60//2
f 60//2 85//2 86//2
f 60//2 86//2 67//2
f 67//2 86//2 87//2
f 67//2 87//2 68//2
f 74//2 76//2 88//2
f 76//2 89//2 88//2
f 88//2 89//2 90//2
f 88//2 90//2 91//2
f 91//2 90//2 92//2
f 91//2 92//2 93//2
f 93//2 92//2 94//2
f 93//2 94//2 95//2
f 95//2 94//2 96//2
f 69//2 57//2 97//2
f 97//2 57//2 98//2
f 97//2 98//2 96//2
f 96//2 98//2 99//2
f 96//2 99//2 95//2
f 70//2 100//2 78//2
f 78//2 100//2 101//2
f 78//2 101//2 54//2
f 54//2 101//2 75//2
f 54//2 75//2 55//2
f 102//2 74//2 103//2
f 103//2 74//2 104//2
f 103//2 104//2 79//2
f 79//2 104//2 105//2
f 79//2 105//2 80//2
f 102//2 106//2 74//2
f 74//2 106//2 107//2
f 74//2 107//2 75//2
f 75//2 107//2 108//2
f 75//2 108//2 55//2
f 109//3 110//3 111//3
f 112//4 1//4 3//4
f 5//5 57//5 56//5
f 113//6 112//6 114//6
f 114//4 112//4 3//4
f 114//7 3//7 115//7
f 115//8 3//8 5//8
f 109//9 111//9 44//9
f 86//10 85//10 47//10
f 5//5 56//5 115//5
f 115//11 56//11 71//11
f 115//11 71//11 116//11
f 116//12 71//12 72//12
f 116//12 72//12 117//12
f 117//13 72//13 73//13
f 117//13 73//13 118//13
f 118//14 73//14 58//14
f 118//14 58//14 119//14
f 119//15 58//15 77//15
f 119//15 77//15 120//15
f 120//16 77//16 64//16
f 120//16 64//16 121//16
f 121//17 64//17 62//17
f 121//17 62//17 122//17
f 122//18 62//18 61//18
f 122//18 61//18 123//18
f 123//19 61//19 66//19
f 123//19 66//19 124//19
f 124//20 66//20 68//20
f 124//20 68//20 125//20
f 125//21 68//21 87//21
f 125//21 87//21 126//21
f 126//22 87//22 86//22
f 126//22 86//22 127//22
f 127//10 86//10 47//10
f 127//23 47//23 111//23
f 111//24 47//24 48//24
f 111//9 48//9 44//9
f 45//25 47//25 84//25
f 84//25 47//25 85//25
f 128//26 129//26 130//26
f 45//27 84//27 82//27
f 46//28 45//28 131//28
f 132//29 133//29 134//29
f 131//30 135//30 46//30
f 46//31 135//31 132//31
f 46//31 132//31 42//31
f 42//32 132//32 134//32
f 42//32 134//32 43//32
f 136//33 9//33 137//33
f 137//34 9//34 8//34
f 137//34 8//34 138//34
f 138//35 8//35 15//35
f 138//35 15//35 139//35
f 139//36 15//36 14//36
f 139//36 14//36 140//36
f 140//37 14//37 26//37
f 140//37 26//37 141//37
f 141//38 26//38 27//38
f 141//38 27//38 130//38
f 130//39 27//39 22//39
f 130//39 22//39 128//39
f 142//40 12//40 136//40
f 136//41 12//41 11//41
f 136//33 11//33 9//33
f 45//27 82//27 131//27
f 131//42 82//42 80//42
f 131//42 80//42 143//42
f 143//43 80//43 105//43
f 143//43 105//43 142//43
f 142//44 105//44 104//44
f 142//44 104//44 12//44
f 10//45 12//45 74//45
f 74//45 12//45 104//45
f 13//46 10//46 88//46
f 88//46 10//46 74//46
f 16//47 13//47 91//47
f 91//47 13//47 88//47
f 4//48 144//48 145//48
f 16//49 91//49 93//49
f 17//50 16//50 146//50
f 147//51 148//51 149//51
f 146//52 150//52 17//52
f 17//53 150//53 151//53
f 17//53 151//53 18//53
f 18//54 151//54 152//54
f 18//54 152//54 19//54
f 19//55 152//55 153//55
f 19//55 153//55 23//55
f 23//56 153//56 154//56
f 23//56 154//56 24//56
f 24//57 154//57 155//57
f 24//57 155//57 25//57
f 25//58 155//58 147//58
f 25//58 147//58 20//58
f 20//59 147//59 149//59
f 20//59 149//59 21//59
f 4//60 2//60 144//60
f 144//60 2//60 156//60
f 144//61 156//61 157//61
f 158//62 7//62 145//62
f 145//63 7//63 6//63
f 145//48 6//48 4//48
f 16//49 93//49 146//49
f 146//64 93//64 95//64
f 146//64 95//64 159//64
f 159//65 95//65 99//65
f 159//65 99//65 158//65
f 158//66 99//66 98//66
f 158//66 98//66 7//66
f 5//67 7//67 57//67
f 57//67 7//67 98//67
f 28//68 33//68 78//68
f 78//68 33//68 49//68
f 33//69 29//69 49//69
f 49//69 29//69 54//69
f 29//70 28//70 54//70
f 54//70 28//70 78//70
f 133//1 132//1 135//1
f 160//1 161//1 153//1
f 162//1 163//1 164//1
f 126//1 127//1 125//1
f 125//1 127//1 111//1
f 125//1 111//1 110//1
f 129//1 148//1 165//1
f 135//1 131//1 133//1
f 133//1 131//1 166//1
f 133//1 166//1 110//1
f 110//1 166//1 162//1
f 110//1 162//1 125//1
f 115//1 116//1 114//1
f 114//1 116//1 117//1
f 114//1 117//1 113//1
f 113//1 117//1 167//1
f 113//1 167//1 157//1
f 147//1 155//1 148//1
f 148//1 155//1 154//1
f 148//1 154//1 165//1
f 164//1 163//1 168//1
f 168//1 163//1 167//1
f 168//1 167//1 169//1
f 169//1 167//1 117//1
f 169//1 117//1 170//1
f 145//1 144//1 158//1
f 158//1 144//1 157//1
f 158//1 157//1 171//1
f 171//1 157//1 167//1
f 153//1 161//1 154//1
f 154//1 161//1 172//1
f 154//1 172//1 165//1
f 141//1 130//1 140//1
f 140//1 130//1 129//1
f 140//1 129//1 173//1
f 173//1 129//1 165//1
f 174//1 175//1 173//1
f 173//1 175//1 176//1
f 173//1 176//1 140//1
f 140//1 176//1 177//1
f 140//1 177//1 139//1
f 139//1 177//1 178//1
f 139//1 178//1 138//1
f 138//1 178//1 179//1
f 138//1 179//1 137//1
f 137//1 179//1 180//1
f 137//1 180//1 136//1
f 181//1 122//1 182//1
f 182//1 122//1 123//1
f 182//1 123//1 183//1
f 183//1 123//1 124//1
f 183//1 124//1 184//1
f 184//1 124//1 125//1
f 184//1 125//1 185//1
f 185//1 125//1 162//1
f 185//1 162//1 186//1
f 186//1 162//1 164//1
f 187//1 120//1 181//1
f 181//1 120//1 121//1
f 181//1 121//1 122//1
f 170//1 117//1 188//1
f 188//1 117//1 118//1
f 188//1 118//1 187//1
f 187//1 118//1 119//1
f 187//1 119//1 120//1
f 166//1 189//1 190//1
f 190//1 189//1 174//1
f 190//1 174//1 191//1
f 191//1 174//1 173//1
f 172//1 192//1 165//1
f 165//1 192//1 193//1
f 165//1 193//1 194//1
f 194//1 193//1 195//1
f 194//1 195//1 196//1
f 196//1 195//1 197//1
f 196//1 197//1 171//1
f 171//1 197//1 198//1
f 171//1 198//1 158//1
f 198//1 199//1 158//1
f 158//1 199//1 200//1
f 158//1 200//1 159//1
f 159//1 200//1 201//1
f 136//1 180//1 142//1
f 142//1 180//1 202//1
f 142//1 202//1 143//1
f 143//1 202//1 203//1
f 143//1 203//1 131//1
f 131//1 203//1 204//1
f 131//1 204//1 166//1
f 166//1 204//1 205//1
f 166//1 205//1 189//1
f 153//1 152//1 160//1
f 160//1 152//1 151//1
f 160//1 151//1 206//1
f 206//1 151//1 150//1
f 206//1 150//1 201//1
f 201//1 150//1 146//1
f 201//1 146//1 159//1
f 109//25 44//25 134//25
f 134//25 44//25 43//25
f 128//46 22//46 149//46
f 149//46 22//46 21//46
f 156//67 2//67 112//67
f 112//67 2//67 1//67
f 207//71 167//71 163//71
f 208//72 34//72 32//72
f 163//73 162//73 208//73
f 208//72 32//72 163//72
f 163//74 32//74 31//74
f 163//74 31//74 207//74
f 209//69 35//69 208//69
f 208//69 35//69 34//69
f 209//75 166//75 190//75
f 210//76 30//76 41//76
f 191//77 173//77 210//77
f 210//76 41//76 191//76
f 191//78 41//78 36//78
f 191//78 36//78 190//78
f 190//79 36//79 35//79
f 190//79 35//79 209//79
f 211//70 38//70 210//70
f 210//70 38//70 30//70
f 211//80 165//80 194//80
f 212//81 37//81 40//81
f 196//82 171//82 212//82
f 212//81 40//81 196//81
f 196//83 40//83 39//83
f 196//83 39//83 194//83
f 194//84 39//84 38//84
f 194//84 38//84 211//84
f 207//68 31//68 212//68
f 212//68 31//68 37//68
f 213//85 164//85 214//85
f 214//86 164//86 168//86
f 214//86 168//86 215//86
f 215//87 168//87 169//87
f 215//87 169//87 216//87
f 216//88 169//88 170//88
f 216//88 170//88 217//88
f 217//89 170//89 188//89
f 217//89 188//89 218//89
f 218//90 188//90 187//90
f 218//90 187//90 219//90
f 219//91 187//91 181//91
f 219//91 181//91 220//91
f 220//92 181//92 182//92
f 220//92 182//92 221//92
f 221//93 182//93 183//93
f 221//93 183//93 222//93
f 222//94 183//94 184//94
f 222//94 184//94 223//94
f 223//95 184//95 185//95
f 223//95 185//95 224//95
f 224//96 185//96 186//96
f 224//96 186//96 213//96
f 213//85 186//85 164//85
f 76//85 161//85 89//85
f 89//86 161//86 160//86
f 89//86 160//86 90//86
f 90//87 160//87 206//87
f 90//87 206//87 92//87
f 92//88 206//88 201//88
f 92//88 201//88 94//88
f 94//89 201//89 200//89
f 94//89 200//89 96//89
f 96//90 200//90 199//90
f 96//90 199//90 97//90
f 97//91 199//91 198//91
f 97//91 198//91 69//91
f 69//92 198//92 197//92
f 69//92 197//92 70//92
f 70//93 197//93 195//93
f 70//93 195//93 100//93
f 100//94 195//94 193//94
f 100//94 193//94 101//94
f 101//95 193//95 192//95
f 101//95 192//95 75//95
f 75//96 192//96 172//96
f 75//96 172//96 76//96
f 76//85 172//85 161//85
f 102//85 178//85 106//85
f 106//86 178//86 177//86
f 106//86 177//86 107//86
f 107//87 177//87 176//87
f 107//87 176//87 108//87
f 108//88 176//88 175//88
f 108//88 175//88 55//88
f 55//89 175//89 174//89
f 55//89 174//89 53//89
f 53//90 174//90 189//90
f 53//90 189//90 52//90
f 52//91 189//91 205//91
f 52//91 205//91 59//91
f 59//92 205//92 204//92
f 59//92 204//92 83//92
f 83//93 204//93 203//93
f 83//93 203//93 81//93
f 81//94 203//94 202//94
f 81//94 202//94 79//94
f 79//95 202//95 180//95
f 79//95 180//95 103//95
f 103//96 180//96 179//96
f 103//96 179//96 102//96
f 102//85 179//85 178//85
f 165//97 211//97 173//97
f 173//97 211//97 210//97
f 149//98 148//98 128//98
f 128//98 148//98 129//98
f 112//99 113//99 156//99
f 156//99 113//99 157//99
f 167//100 207//100 171//100
f 171//100 207//100 212//100
f 166//101 209//101 162//101
f 162//101 209//101 208//101
f 134//102 133//102 109//102
f 109//102 133//102 110//102
f 225//2 226//2 221//2
f 227//2 228//2 213//2
f 229//2 219//2 226//2
f 226//2 219//2 220//2
f 226//2 220//2 221//2
f 221//2 222//2 225//2
f 225//2 222//2 223//2
f 225//2 223//2 228//2
f 228//2 223//2 224//2
f 228//2 224//2 213//2
f 213//2 214//2 227//2
f 227//2 214//2 215//2
f 227//2 215//2 230//2
f 215//2 216//2 230//2
f 230//2 216//2 217//2
f 230//2 217//2 229//2
f 229//2 217//2 218//2
f 229//2 218//2 219//2
f 225//103 228//103 67//103
f 67//103 228//103 60//103
f 228//104 227//104 60//104
f 60//104 227//104 50//104
f 227//105 230//105 50//105
f 50//105 230//105 51//105
f 230//106 229//106 51//106
f 51//106 229//106 65//106
f 229//107 226//107 65//107
f 65//107 226//107 63//107
f 226//108 225//108 63//108
f 63//108 225//108 67//108
