# Blender v2.82 (sub 7) OBJ File: 'Фиксаторы.blend'
# www.blender.org
mtllib Фиксатор2.mtl
o Фиксатор_круг
v -0.018687 0.000468 -0.001457
v -0.024475 0.000468 0.004780
v -0.018047 0.000468 -0.000816
v -0.023356 0.000468 0.008645
v -0.017172 0.000468 -0.000582
v -0.021631 0.000468 0.012280
v 0.008928 0.000468 -0.014928
v 0.009569 0.000468 -0.015568
v -0.015656 0.000468 -0.003207
v 0.008537 0.000468 0.015723
v 0.009819 0.000468 0.022779
v 0.010444 0.000468 -0.012303
v 0.013381 0.000468 0.020909
v 0.016598 0.000468 0.018492
v 0.011960 0.000468 -0.013178
v 0.022606 0.000468 -0.010938
v 0.012194 0.000468 -0.014053
v 0.020594 0.000468 -0.014422
v 0.011960 0.000468 -0.014928
v 0.018050 0.000468 -0.017539
v 0.011319 0.000468 -0.015568
v 0.015038 0.000468 -0.020207
v 0.010444 0.000468 -0.015803
v 0.024515 0.000468 0.004780
v 0.025000 0.000468 0.000786
v 0.011319 0.000468 -0.012537
v 0.024838 0.000468 -0.003234
v 0.024033 0.000468 -0.007176
v 0.005271 0.000468 0.014848
v 0.005912 0.000468 0.014208
v 0.006520 0.000468 -0.000220
v 0.019385 0.000468 0.015591
v 0.021670 0.000468 0.012280
v 0.023395 0.000468 0.008645
v -0.017172 0.000468 -0.004082
v -0.020555 0.000468 -0.014422
v -0.018047 0.000468 -0.003847
v -0.022566 0.000468 -0.010938
v -0.018687 0.000468 -0.003207
v -0.023993 0.000468 -0.007176
v -0.018922 0.000468 -0.002332
v -0.024798 0.000468 -0.003234
v -0.024960 0.000468 0.000786
v 0.008303 0.000468 0.016598
v 0.007662 0.000468 0.017239
v 0.006003 0.000468 0.024053
v 0.006787 0.000468 0.017473
v 0.002031 0.000468 0.024698
v 0.005912 0.000468 0.017239
v 0.000020 0.000468 0.024780
v 0.005271 0.000468 0.016598
v 0.005037 0.000468 0.015723
v 0.011638 0.000468 -0.022357
v 0.007937 0.000468 -0.023934
v 0.004030 0.000468 -0.024897
v 0.000020 0.000468 -0.025220
v -0.016297 0.000468 -0.003847
v -0.003990 0.000468 -0.024897
v -0.007897 0.000468 -0.023934
v -0.011598 0.000468 -0.022357
v -0.014999 0.000468 -0.020207
v -0.018010 0.000468 -0.017539
v 0.006202 0.000468 0.001788
v 0.005278 0.000468 0.003600
v -0.009779 0.000468 0.022779
v -0.005963 0.000468 0.024053
v -0.016297 0.000468 -0.000816
v 0.003840 0.000468 0.005038
v 0.002028 0.000468 0.005961
v 0.000020 0.000468 0.006280
v -0.001992 0.000468 0.024698
v -0.001989 0.000468 0.005961
v -0.003801 0.000468 0.005038
v 0.006787 0.000468 0.013973
v 0.007662 0.000468 0.014208
v 0.008303 0.000468 0.014848
v -0.005239 0.000468 -0.004041
v -0.003801 0.000468 -0.005479
v -0.006162 0.000468 -0.002229
v -0.015422 0.000468 -0.002332
v -0.006480 0.000468 -0.000220
v -0.015656 0.000468 -0.001457
v -0.006162 0.000468 0.001788
v -0.019345 0.000468 0.015591
v -0.016558 0.000468 0.018492
v -0.013342 0.000468 0.020909
v 0.000020 0.000468 -0.006720
v 0.002028 0.000468 -0.006402
v 0.008928 0.000468 -0.013178
v 0.003840 0.000468 -0.005479
v 0.009569 0.000468 -0.012537
v 0.005278 0.000468 -0.004041
v 0.006202 0.000468 -0.002229
v 0.008694 0.000468 -0.014053
v -0.001989 0.000468 -0.006402
v -0.005239 0.000468 0.003600
v -0.021631 -0.002532 0.012280
v -0.023356 -0.002532 0.008645
v -0.004640 -0.002532 0.001592
v -0.015422 -0.002532 -0.002332
v -0.015656 -0.002532 -0.003207
v 0.004030 -0.002532 -0.024897
v -0.019345 -0.002532 0.015591
v 0.012194 -0.002532 -0.014053
v 0.011960 -0.002532 -0.014928
v 0.018050 -0.002532 -0.017539
v 0.006787 -0.002532 0.013973
v 0.003920 -0.002532 0.002908
v 0.004680 -0.002532 -0.002033
v -0.015656 -0.002532 -0.001457
v 0.000780 -0.002532 -0.005162
v -0.016297 -0.002532 -0.000816
v -0.003880 -0.002532 -0.003349
v -0.017172 -0.002532 -0.000582
v -0.000740 -0.002532 0.004721
v -0.001992 -0.002532 0.024698
v -0.005963 -0.002532 0.024053
v -0.011598 -0.002532 -0.022357
v -0.007897 -0.002532 -0.023934
v -0.016297 -0.002532 -0.003847
v -0.003990 -0.002532 -0.024897
v 0.000020 -0.002532 -0.025220
v -0.018047 -0.002532 -0.003847
v -0.020555 -0.002532 -0.014422
v -0.017172 -0.002532 -0.004082
v -0.018010 -0.002532 -0.017539
v -0.014999 -0.002532 -0.020207
v -0.018047 -0.002532 -0.000816
v -0.024475 -0.002532 0.004780
v -0.018687 -0.002532 -0.001457
v -0.024960 -0.002532 0.000786
v -0.018922 -0.002532 -0.002332
v -0.024798 -0.002532 -0.003234
v -0.018687 -0.002532 -0.003207
v -0.023993 -0.002532 -0.007176
v -0.022566 -0.002532 -0.010938
v 0.005912 -0.002532 0.014208
v 0.005271 -0.002532 0.014848
v 0.005037 -0.002532 0.015723
v 0.005271 -0.002532 0.016598
v 0.000020 -0.002532 0.024780
v 0.005912 -0.002532 0.017239
v 0.002031 -0.002532 0.024698
v 0.008928 -0.002532 -0.014928
v 0.008694 -0.002532 -0.014053
v 0.007937 -0.002532 -0.023934
v 0.025000 -0.002532 0.000786
v 0.024515 -0.002532 0.004780
v 0.011319 -0.002532 -0.012537
v -0.009779 -0.002532 0.022779
v -0.013342 -0.002532 0.020909
v -0.016558 -0.002532 0.018492
v 0.006003 -0.002532 0.024053
v 0.006787 -0.002532 0.017473
v 0.009819 -0.002532 0.022779
v 0.007662 -0.002532 0.017239
v 0.013381 -0.002532 0.020909
v 0.008303 -0.002532 0.016598
v 0.016598 -0.002532 0.018492
v 0.008537 -0.002532 0.015723
v 0.019385 -0.002532 0.015591
v 0.021670 -0.002532 0.012280
v 0.008303 -0.002532 0.014848
v 0.023395 -0.002532 0.008645
v 0.015038 -0.002532 -0.020207
v 0.011319 -0.002532 -0.015568
v 0.011638 -0.002532 -0.022357
v 0.010444 -0.002532 -0.015803
v 0.009569 -0.002532 -0.015568
v 0.010444 -0.002532 -0.012303
v 0.020594 -0.002532 -0.014422
v 0.022606 -0.002532 -0.010938
v 0.011960 -0.002532 -0.013178
v 0.024033 -0.002532 -0.007176
v 0.024838 -0.002532 -0.003234
v 0.008928 -0.002532 -0.013178
v 0.009569 -0.002532 -0.012537
v 0.007662 -0.002532 0.014208
v 0.002028 0.004468 -0.006402
v 0.000020 0.004468 -0.006720
v -0.001989 0.004468 -0.006402
v -0.003801 0.004468 -0.005479
v -0.005239 0.004468 -0.004041
v -0.006162 0.004468 -0.002229
v -0.006480 0.004468 -0.000220
v -0.006162 0.004468 0.001788
v -0.005239 0.004468 0.003600
v -0.003801 0.004468 0.005038
v -0.001989 0.004468 0.005961
v 0.000020 0.004468 0.006280
v 0.002028 0.004468 0.005961
v 0.003840 0.004468 0.005038
v 0.005278 0.004468 0.003600
v 0.006202 0.004468 0.001788
v 0.006520 0.004468 -0.000220
v 0.006202 0.004468 -0.002229
v 0.005278 0.004468 -0.004041
v 0.003840 0.004468 -0.005479
v 0.000020 0.004468 0.002530
v -0.001258 0.004468 0.002215
v 0.001298 0.004468 0.002215
v 0.002283 0.004468 0.001342
v -0.001804 0.004468 -0.002279
v -0.002551 0.004468 -0.001196
v -0.002710 0.004468 0.000111
v 0.002750 0.004468 0.000111
v 0.002591 0.004468 -0.001196
v -0.002243 0.004468 0.001342
v 0.000678 0.004468 -0.002891
v -0.000638 0.004468 -0.002891
v 0.001843 0.004468 -0.002279
v -0.001258 0.001468 0.002215
v 0.000020 0.001468 0.002530
v 0.001298 0.001468 0.002215
v 0.002283 0.001468 0.001342
v 0.002750 0.001468 0.000111
v 0.002591 0.001468 -0.001196
v 0.001843 0.001468 -0.002279
v 0.000678 0.001468 -0.002891
v -0.000638 0.001468 -0.002891
v -0.001804 0.001468 -0.002279
v -0.002551 0.001468 -0.001196
v -0.002710 0.001468 0.000111
v -0.002243 0.001468 0.001342
v -0.003880 0.001468 -0.003349
v 0.000780 0.001468 -0.005162
v 0.003920 0.001468 0.002908
v -0.000740 0.001468 0.004721
v -0.004640 0.001468 0.001592
v 0.004680 0.001468 -0.002033
v -0.004640 -0.002532 0.001592
v -0.000740 -0.002532 0.004721
v 0.003920 -0.002532 0.002908
v 0.000780 -0.002532 -0.005162
v -0.003880 -0.002532 -0.003349
vn 0.0000 1.0000 0.0000
vn 0.0000 -1.0000 0.0000
vn 0.0403 0.0000 0.9992
vn -0.0403 0.0000 0.9992
vn 0.1604 0.0000 0.9871
vn 0.3167 0.0000 0.9485
vn 0.4647 0.0000 0.8855
vn 0.6007 0.0000 0.7994
vn 0.7212 0.0000 0.6927
vn 0.8230 0.0000 0.5681
vn 0.9035 0.0000 0.4287
vn 0.9605 0.0000 0.2782
vn 0.9927 0.0000 0.1205
vn 0.9992 -0.0000 -0.0403
vn 0.9798 0.0000 -0.2000
vn 0.9350 0.0000 -0.3546
vn 0.8660 0.0000 -0.5000
vn 0.7746 0.0000 -0.6324
vn 0.6631 0.0000 -0.7485
vn 0.5345 0.0000 -0.8452
vn 0.3920 0.0000 -0.9200
vn 0.2393 0.0000 -0.9709
vn 0.0805 0.0000 -0.9968
vn -0.0805 0.0000 -0.9968
vn -0.2393 0.0000 -0.9709
vn -0.3920 0.0000 -0.9200
vn -0.5345 0.0000 -0.8452
vn -0.6631 0.0000 -0.7485
vn -0.7746 0.0000 -0.6324
vn -0.8660 0.0000 -0.5000
vn -0.9350 0.0000 -0.3546
vn -0.9798 0.0000 -0.2000
vn -0.9992 0.0000 -0.0403
vn -0.9927 0.0000 0.1205
vn -0.9605 0.0000 0.2782
vn -0.9035 0.0000 0.4287
vn -0.8230 0.0000 0.5681
vn -0.7212 0.0000 0.6927
vn -0.6007 0.0000 0.7994
vn -0.4647 0.0000 0.8855
vn -0.3167 0.0000 0.9485
vn -0.1604 0.0000 0.9871
vn 0.2588 0.0000 0.9659
vn -0.2588 0.0000 0.9659
vn -0.7071 0.0000 0.7071
vn -0.9659 0.0000 0.2588
vn -0.9659 0.0000 -0.2588
vn -0.7071 0.0000 -0.7071
vn -0.2588 0.0000 -0.9659
vn 0.2588 0.0000 -0.9659
vn 0.7071 0.0000 -0.7071
vn 0.9659 0.0000 -0.2588
vn 0.9659 0.0000 0.2588
vn 0.7071 0.0000 0.7071
vn 0.1564 0.0000 -0.9877
vn -0.1564 0.0000 -0.9877
vn -0.4540 0.0000 -0.8910
vn -0.8910 0.0000 -0.4540
vn -0.9877 0.0000 -0.1564
vn -0.9877 0.0000 0.1564
vn -0.8910 0.0000 0.4540
vn -0.4540 0.0000 0.8910
vn -0.1564 0.0000 0.9877
vn 0.1564 0.0000 0.9877
vn 0.4540 0.0000 0.8910
vn 0.8910 -0.0000 0.4540
vn 0.9877 0.0000 0.1564
vn 0.9877 0.0000 -0.1564
vn 0.8910 0.0000 -0.4540
vn 0.4540 0.0000 -0.8910
vn 0.0000 -0.0000 1.0000
vn 0.9884 0.0000 0.1520
vn 0.6258 0.0000 -0.7800
vn -0.3626 0.0000 -0.9319
vn -0.9884 0.0000 -0.1520
vn -0.6258 0.0000 0.7800
vn 0.3626 0.0000 0.9319
usemtl None
s off
f 1//1 2//1 3//1
f 3//1 2//1 4//1
f 3//1 4//1 5//1
f 5//1 4//1 6//1
f 7//1 8//1 9//1
f 10//1 11//1 12//1
f 12//1 11//1 13//1
f 12//1 13//1 14//1
f 15//1 16//1 17//1
f 17//1 16//1 18//1
f 17//1 18//1 19//1
f 19//1 18//1 20//1
f 19//1 20//1 21//1
f 21//1 20//1 22//1
f 21//1 22//1 23//1
f 24//1 25//1 26//1
f 26//1 25//1 27//1
f 26//1 27//1 15//1
f 15//1 27//1 28//1
f 15//1 28//1 16//1
f 29//1 30//1 31//1
f 14//1 32//1 12//1
f 12//1 32//1 33//1
f 12//1 33//1 26//1
f 26//1 33//1 34//1
f 26//1 34//1 24//1
f 35//1 36//1 37//1
f 37//1 36//1 38//1
f 37//1 38//1 39//1
f 39//1 38//1 40//1
f 39//1 40//1 41//1
f 41//1 40//1 42//1
f 41//1 42//1 1//1
f 1//1 42//1 43//1
f 1//1 43//1 2//1
f 10//1 44//1 11//1
f 11//1 44//1 45//1
f 11//1 45//1 46//1
f 46//1 45//1 47//1
f 46//1 47//1 48//1
f 48//1 47//1 49//1
f 48//1 49//1 50//1
f 50//1 49//1 51//1
f 50//1 51//1 52//1
f 22//1 53//1 23//1
f 23//1 53//1 54//1
f 23//1 54//1 8//1
f 8//1 54//1 55//1
f 8//1 55//1 9//1
f 9//1 55//1 56//1
f 9//1 56//1 57//1
f 57//1 56//1 58//1
f 57//1 58//1 59//1
f 59//1 60//1 57//1
f 57//1 60//1 61//1
f 57//1 61//1 35//1
f 35//1 61//1 62//1
f 35//1 62//1 36//1
f 29//1 31//1 52//1
f 52//1 31//1 63//1
f 52//1 63//1 64//1
f 65//1 66//1 67//1
f 64//1 68//1 52//1
f 52//1 68//1 69//1
f 52//1 69//1 50//1
f 50//1 69//1 70//1
f 50//1 70//1 71//1
f 71//1 70//1 72//1
f 71//1 72//1 73//1
f 30//1 74//1 31//1
f 31//1 74//1 75//1
f 31//1 75//1 12//1
f 12//1 75//1 76//1
f 12//1 76//1 10//1
f 9//1 77//1 78//1
f 77//1 9//1 79//1
f 79//1 9//1 80//1
f 79//1 80//1 81//1
f 81//1 80//1 82//1
f 81//1 82//1 83//1
f 6//1 84//1 5//1
f 5//1 84//1 85//1
f 5//1 85//1 67//1
f 67//1 85//1 86//1
f 67//1 86//1 65//1
f 87//1 88//1 89//1
f 89//1 88//1 90//1
f 89//1 90//1 91//1
f 91//1 90//1 92//1
f 91//1 92//1 12//1
f 12//1 92//1 93//1
f 12//1 93//1 31//1
f 7//1 9//1 94//1
f 94//1 9//1 78//1
f 94//1 78//1 89//1
f 89//1 78//1 95//1
f 89//1 95//1 87//1
f 66//1 71//1 67//1
f 67//1 71//1 73//1
f 67//1 73//1 82//1
f 82//1 73//1 96//1
f 82//1 96//1 83//1
f 97//2 98//2 99//2
f 100//2 101//2 102//2
f 97//2 99//2 103//2
f 104//2 105//2 106//2
f 107//2 108//2 109//2
f 110//2 111//2 112//2
f 112//2 111//2 113//2
f 112//2 113//2 114//2
f 115//2 116//2 117//2
f 108//2 107//2 115//2
f 118//2 119//2 120//2
f 120//2 119//2 121//2
f 120//2 121//2 101//2
f 101//2 121//2 122//2
f 101//2 122//2 102//2
f 123//2 124//2 125//2
f 125//2 124//2 126//2
f 125//2 126//2 120//2
f 120//2 126//2 127//2
f 120//2 127//2 118//2
f 113//2 99//2 114//2
f 114//2 99//2 98//2
f 114//2 98//2 128//2
f 128//2 98//2 129//2
f 128//2 129//2 130//2
f 130//2 129//2 131//2
f 130//2 131//2 132//2
f 132//2 131//2 133//2
f 132//2 133//2 134//2
f 134//2 133//2 135//2
f 134//2 135//2 123//2
f 123//2 135//2 136//2
f 123//2 136//2 124//2
f 107//2 137//2 115//2
f 115//2 137//2 138//2
f 115//2 138//2 116//2
f 138//2 139//2 116//2
f 116//2 139//2 140//2
f 116//2 140//2 141//2
f 141//2 140//2 142//2
f 141//2 142//2 143//2
f 144//2 145//2 146//2
f 147//2 148//2 149//2
f 117//2 150//2 115//2
f 115//2 150//2 151//2
f 115//2 151//2 99//2
f 99//2 151//2 152//2
f 99//2 152//2 103//2
f 143//2 142//2 153//2
f 153//2 142//2 154//2
f 153//2 154//2 155//2
f 155//2 154//2 156//2
f 155//2 156//2 157//2
f 157//2 156//2 158//2
f 157//2 158//2 159//2
f 159//2 158//2 160//2
f 159//2 160//2 161//2
f 161//2 160//2 162//2
f 162//2 160//2 163//2
f 162//2 163//2 164//2
f 106//2 105//2 165//2
f 165//2 105//2 166//2
f 165//2 166//2 167//2
f 167//2 166//2 168//2
f 167//2 168//2 146//2
f 146//2 168//2 169//2
f 146//2 169//2 144//2
f 110//2 100//2 111//2
f 111//2 100//2 102//2
f 111//2 102//2 109//2
f 109//2 102//2 146//2
f 109//2 146//2 107//2
f 107//2 146//2 145//2
f 149//2 148//2 170//2
f 106//2 171//2 104//2
f 104//2 171//2 172//2
f 104//2 172//2 173//2
f 173//2 172//2 174//2
f 173//2 174//2 149//2
f 149//2 174//2 175//2
f 149//2 175//2 147//2
f 145//2 176//2 107//2
f 107//2 176//2 177//2
f 107//2 177//2 178//2
f 178//2 177//2 170//2
f 178//2 170//2 163//2
f 163//2 170//2 148//2
f 163//2 148//2 164//2
f 48//3 50//3 141//3
f 141//4 50//4 116//4
f 141//3 143//3 48//3
f 48//5 143//5 153//5
f 48//5 153//5 46//5
f 46//6 153//6 155//6
f 46//6 155//6 11//6
f 11//7 155//7 157//7
f 11//7 157//7 13//7
f 13//8 157//8 159//8
f 13//8 159//8 14//8
f 14//9 159//9 161//9
f 14//9 161//9 32//9
f 32//10 161//10 162//10
f 32//10 162//10 33//10
f 33//11 162//11 164//11
f 33//11 164//11 34//11
f 34//12 164//12 148//12
f 34//12 148//12 24//12
f 24//13 148//13 147//13
f 24//13 147//13 25//13
f 25//14 147//14 175//14
f 25//14 175//14 27//14
f 27//15 175//15 174//15
f 27//15 174//15 28//15
f 28//16 174//16 172//16
f 28//16 172//16 16//16
f 16//17 172//17 171//17
f 16//17 171//17 18//17
f 18//18 171//18 106//18
f 18//18 106//18 20//18
f 20//19 106//19 165//19
f 20//19 165//19 22//19
f 22//20 165//20 167//20
f 22//20 167//20 53//20
f 53//21 167//21 146//21
f 53//21 146//21 54//21
f 54//22 146//22 102//22
f 54//22 102//22 55//22
f 55//23 102//23 122//23
f 55//23 122//23 56//23
f 56//24 122//24 121//24
f 56//24 121//24 58//24
f 58//25 121//25 119//25
f 58//25 119//25 59//25
f 59//26 119//26 118//26
f 59//26 118//26 60//26
f 60//27 118//27 127//27
f 60//27 127//27 61//27
f 61//28 127//28 126//28
f 61//28 126//28 62//28
f 62//29 126//29 124//29
f 62//29 124//29 36//29
f 36//30 124//30 136//30
f 36//30 136//30 38//30
f 38//31 136//31 135//31
f 38//31 135//31 40//31
f 40//32 135//32 133//32
f 40//32 133//32 42//32
f 42//33 133//33 131//33
f 42//33 131//33 43//33
f 43//34 131//34 129//34
f 43//34 129//34 2//34
f 2//35 129//35 98//35
f 2//35 98//35 4//35
f 4//36 98//36 97//36
f 4//36 97//36 6//36
f 6//37 97//37 103//37
f 6//37 103//37 84//37
f 84//38 103//38 152//38
f 84//38 152//38 85//38
f 85//39 152//39 151//39
f 85//39 151//39 86//39
f 86//40 151//40 150//40
f 86//40 150//40 65//40
f 65//41 150//41 117//41
f 65//41 117//41 66//41
f 66//42 117//42 116//42
f 66//42 116//42 71//42
f 71//4 116//4 50//4
f 30//43 107//43 74//43
f 74//44 107//44 178//44
f 74//44 178//44 75//44
f 75//45 178//45 163//45
f 75//45 163//45 76//45
f 76//46 163//46 160//46
f 76//46 160//46 10//46
f 10//47 160//47 158//47
f 10//47 158//47 44//47
f 44//48 158//48 156//48
f 44//48 156//48 45//48
f 45//49 156//49 154//49
f 45//49 154//49 47//49
f 47//50 154//50 142//50
f 47//50 142//50 49//50
f 49//51 142//51 140//51
f 49//51 140//51 51//51
f 51//52 140//52 139//52
f 51//52 139//52 52//52
f 52//53 139//53 138//53
f 52//53 138//53 29//53
f 29//54 138//54 137//54
f 29//54 137//54 30//54
f 30//43 137//43 107//43
f 8//43 168//43 23//43
f 23//44 168//44 166//44
f 23//44 166//44 21//44
f 21//45 166//45 105//45
f 21//45 105//45 19//45
f 19//46 105//46 104//46
f 19//46 104//46 17//46
f 17//47 104//47 173//47
f 17//47 173//47 15//47
f 15//48 173//48 149//48
f 15//48 149//48 26//48
f 26//49 149//49 170//49
f 26//49 170//49 12//49
f 12//50 170//50 177//50
f 12//50 177//50 91//50
f 91//51 177//51 176//51
f 91//51 176//51 89//51
f 89//52 176//52 145//52
f 89//52 145//52 94//52
f 94//53 145//53 144//53
f 94//53 144//53 7//53
f 7//54 144//54 169//54
f 7//54 169//54 8//54
f 8//43 169//43 168//43
f 37//43 125//43 35//43
f 35//44 125//44 120//44
f 35//44 120//44 57//44
f 57//45 120//45 101//45
f 57//45 101//45 9//45
f 9//46 101//46 100//46
f 9//46 100//46 80//46
f 80//47 100//47 110//47
f 80//47 110//47 82//47
f 82//48 110//48 112//48
f 82//48 112//48 67//48
f 67//49 112//49 114//49
f 67//49 114//49 5//49
f 5//50 114//50 128//50
f 5//50 128//50 3//50
f 3//51 128//51 130//51
f 3//51 130//51 1//51
f 1//52 130//52 132//52
f 1//52 132//52 41//52
f 41//53 132//53 134//53
f 41//53 134//53 39//53
f 39//54 134//54 123//54
f 39//54 123//54 37//54
f 37//43 123//43 125//43
f 179//55 87//55 180//55
f 180//56 87//56 95//56
f 180//56 95//56 181//56
f 181//57 95//57 78//57
f 181//57 78//57 182//57
f 182//48 78//48 77//48
f 182//48 77//48 183//48
f 183//58 77//58 79//58
f 183//58 79//58 184//58
f 184//59 79//59 81//59
f 184//59 81//59 185//59
f 185//60 81//60 83//60
f 185//60 83//60 186//60
f 186//61 83//61 96//61
f 186//61 96//61 187//61
f 187//45 96//45 73//45
f 187//45 73//45 188//45
f 188//62 73//62 72//62
f 188//62 72//62 189//62
f 189//63 72//63 70//63
f 189//63 70//63 190//63
f 190//64 70//64 69//64
f 190//64 69//64 191//64
f 191//65 69//65 68//65
f 191//65 68//65 192//65
f 192//54 68//54 64//54
f 192//54 64//54 193//54
f 193//66 64//66 63//66
f 193//66 63//66 194//66
f 194//67 63//67 31//67
f 194//67 31//67 195//67
f 195//68 31//68 93//68
f 195//68 93//68 196//68
f 196//69 93//69 92//69
f 196//69 92//69 197//69
f 197//51 92//51 90//51
f 197//51 90//51 198//51
f 198//70 90//70 88//70
f 198//70 88//70 179//70
f 179//55 88//55 87//55
f 199//1 200//1 189//1
f 189//1 190//1 199//1
f 199//1 190//1 191//1
f 199//1 191//1 201//1
f 201//1 191//1 192//1
f 201//1 192//1 202//1
f 203//1 183//1 204//1
f 204//1 183//1 184//1
f 204//1 184//1 205//1
f 192//1 193//1 202//1
f 202//1 193//1 194//1
f 202//1 194//1 206//1
f 206//1 194//1 195//1
f 206//1 195//1 207//1
f 184//1 185//1 205//1
f 205//1 185//1 186//1
f 205//1 186//1 208//1
f 208//1 186//1 187//1
f 208//1 187//1 200//1
f 200//1 187//1 188//1
f 200//1 188//1 189//1
f 209//1 180//1 210//1
f 210//1 180//1 181//1
f 210//1 181//1 203//1
f 203//1 181//1 182//1
f 203//1 182//1 183//1
f 195//1 196//1 207//1
f 207//1 196//1 197//1
f 207//1 197//1 211//1
f 211//1 197//1 198//1
f 211//1 198//1 209//1
f 209//1 198//1 179//1
f 209//1 179//1 180//1
f 212//22 199//22 213//22
f 213//25 199//25 201//25
f 213//25 201//25 214//25
f 214//28 201//28 202//28
f 214//28 202//28 215//28
f 215//31 202//31 206//31
f 215//31 206//31 216//31
f 216//34 206//34 207//34
f 216//34 207//34 217//34
f 217//37 207//37 211//37
f 217//37 211//37 218//37
f 218//40 211//40 209//40
f 218//40 209//40 219//40
f 219//71 209//71 210//71
f 219//71 210//71 220//71
f 220//7 210//7 203//7
f 220//7 203//7 221//7
f 221//10 203//10 204//10
f 221//10 204//10 222//10
f 222//13 204//13 205//13
f 222//13 205//13 223//13
f 223//16 205//16 208//16
f 223//16 208//16 224//16
f 224//19 208//19 200//19
f 224//19 200//19 212//19
f 212//22 200//22 199//22
f 225//2 226//2 220//2
f 227//2 228//2 213//2
f 220//2 221//2 225//2
f 225//2 221//2 222//2
f 225//2 222//2 229//2
f 222//2 223//2 229//2
f 229//2 223//2 224//2
f 229//2 224//2 228//2
f 228//2 224//2 212//2
f 228//2 212//2 213//2
f 213//2 214//2 227//2
f 227//2 214//2 215//2
f 227//2 215//2 230//2
f 230//2 215//2 216//2
f 216//2 217//2 230//2
f 230//2 217//2 218//2
f 230//2 218//2 226//2
f 226//2 218//2 219//2
f 226//2 219//2 220//2
f 225//72 229//72 113//72
f 113//72 229//72 99//72
f 229//73 228//73 231//73
f 231//73 228//73 232//73
f 228//74 227//74 232//74
f 232//74 227//74 233//74
f 227//75 230//75 108//75
f 108//75 230//75 109//75
f 230//76 226//76 109//76
f 109//76 226//76 111//76
f 226//77 225//77 234//77
f 234//77 225//77 235//77
